<svg width="9" height="9" viewBox="0 0 9 9" fill="none" xmlns="http://www.w3.org/2000/svg">
<path d="M0.982432 4.17768C1.7179 4.1817 2.45337 4.18129 3.18883 4.17808C3.76234 4.17527 4.17348 3.76457 4.1783 3.19272C4.18152 2.82502 4.1787 2.45772 4.1787 2.09002C4.1787 1.71549 4.18272 1.34095 4.1779 0.966824C4.17107 0.419894 3.75671 0.00678316 3.20813 0.00316643C2.46623 -0.00125402 1.72393 -0.000852158 0.98203 0.00316643C0.420985 0.00597944 0.00582748 0.41909 0.00301421 0.978076C-0.00100474 1.71991 -0.00100474 2.46174 0.00301421 3.20397C0.00582748 3.76216 0.421789 4.17486 0.982432 4.17768ZM0.645242 1.00902C0.646046 0.765091 0.770232 0.646944 1.02061 0.645337C1.37468 0.642926 1.72915 0.644533 2.08362 0.644533C2.44453 0.644533 2.80583 0.642926 3.16673 0.645337C3.4139 0.647346 3.53487 0.767904 3.53567 1.01585C3.53728 1.73116 3.53728 2.44647 3.53567 3.16178C3.53487 3.41173 3.4155 3.5347 3.16995 3.53551C2.44774 3.53752 1.72554 3.53792 1.00373 3.5351C0.769026 3.5343 0.646046 3.41013 0.645242 3.17504C0.642831 2.4529 0.642831 1.73116 0.645242 1.00902Z" fill="#1E68D7"/>
<path d="M5.8247 4.17831C6.1856 4.18032 6.5465 4.17872 6.90781 4.17872C7.26871 4.17872 7.62961 4.18032 7.99051 4.17831C8.58934 4.1751 8.99605 3.76922 8.99766 3.17005C9.00007 2.44831 9.00007 1.72617 8.99766 1.00443C8.99565 0.416915 8.58813 0.00500919 8.00458 0.00259804C7.27594 -0.000214972 6.54731 -0.000214972 5.81907 0.00259804C5.23432 0.00460734 4.82398 0.415709 4.82197 1.00041C4.81956 1.72215 4.81996 2.44429 4.82197 3.16603C4.82278 3.76601 5.22869 4.1747 5.8247 4.17831ZM5.4642 1.01689C5.46501 0.768541 5.58557 0.645974 5.83153 0.645171C6.55374 0.643161 7.27594 0.642759 7.99815 0.645572C8.23125 0.646376 8.35383 0.771756 8.35463 1.00765C8.35704 1.72939 8.35704 2.45153 8.35463 3.17367C8.35383 3.41639 8.22884 3.53413 7.97765 3.53534C7.61635 3.53775 7.25545 3.53614 6.89414 3.53614C6.54007 3.53614 6.1856 3.53815 5.83113 3.53534C5.58517 3.53333 5.46501 3.41197 5.4642 3.16282C5.46259 2.44751 5.46259 1.7322 5.4642 1.01689Z" fill="#1E68D7"/>
<path d="M3.19617 4.82216C2.83487 4.81854 2.47396 4.82135 2.11306 4.82135C1.7385 4.82135 1.36433 4.81894 0.989767 4.82176C0.417066 4.82618 0.00512416 5.23607 0.00271279 5.80872C-0.000904263 6.54372 -0.000904263 7.27912 0.00271279 8.01453C0.00512416 8.57592 0.416664 8.99305 0.974093 8.99667C1.71639 9.00149 2.45829 9.00109 3.20059 8.99707C3.76083 8.99386 4.17478 8.58034 4.178 8.02055C4.18202 7.27872 4.18242 6.53649 4.1776 5.79466C4.17398 5.23647 3.75802 4.82698 3.19617 4.82216ZM3.53537 7.98599C3.53336 8.23354 3.41319 8.3541 3.16482 8.3549C2.44905 8.35651 1.73367 8.35651 1.0183 8.3549C0.769126 8.3541 0.645343 8.23394 0.644941 7.98921C0.642529 7.26707 0.642529 6.54533 0.644941 5.82319C0.645745 5.58931 0.770332 5.46553 1.00504 5.46473C1.72724 5.46232 2.44945 5.46232 3.17165 5.46473C3.4156 5.46553 3.53376 5.58971 3.53537 5.84007C3.53738 6.19451 3.53577 6.54854 3.53577 6.90298C3.53577 7.26385 3.53778 7.62512 3.53537 7.98599Z" fill="#1E68D7"/>
<path d="M8.99739 5.78668C8.99016 5.23934 8.57701 4.82583 8.02842 4.82222C7.28612 4.81739 6.54423 4.8182 5.80193 4.82181C5.24088 4.82503 4.82532 5.23734 4.82211 5.79592C4.81809 6.53775 4.81809 7.27998 4.82211 8.02182C4.82532 8.5804 5.24048 8.99351 5.80112 8.99673C6.53659 9.00074 7.27206 8.99994 8.00752 8.99673C8.58103 8.99431 8.99257 8.58361 8.99779 8.01257C9.00101 7.6517 8.9982 7.29083 8.9982 6.92956C8.9982 6.5486 9.00262 6.16764 8.99739 5.78668ZM8.35516 7.98284C8.35436 8.23159 8.23419 8.35375 7.98743 8.35415C7.26522 8.35656 6.54342 8.35656 5.82122 8.35415C5.58812 8.35335 5.46634 8.22797 5.46474 7.99168C5.46152 7.63081 5.46393 7.26994 5.46393 6.90867C5.46393 6.55463 5.46232 6.20019 5.46433 5.84575C5.46554 5.58454 5.5833 5.46479 5.84212 5.46398C6.55749 5.46238 7.27286 5.46197 7.98823 5.46439C8.23379 5.46519 8.35436 5.58816 8.35516 5.83651C8.35677 6.55222 8.35757 7.26753 8.35516 7.98284Z" fill="#1E68D7"/>
</svg>
