<svg width="9" height="9" viewBox="0 0 9 9" fill="none" xmlns="http://www.w3.org/2000/svg">
<path d="M4.62315 8.43035C4.55323 8.39213 4.48036 8.40075 4.4075 8.40075C3.49449 8.4 2.58148 8.40037 1.66847 8.40037C1.34941 8.40037 1.25667 8.30143 1.26477 7.97202C1.30783 6.23348 2.74965 4.82098 4.49766 4.80487C6.0164 4.79063 7.10899 3.42686 6.8179 1.90943C6.58643 0.701933 5.48096 -0.107561 4.22607 0.0116145C3.10257 0.118423 2.16159 1.1629 2.14724 2.32917C2.13656 3.21249 2.50383 3.90243 3.22585 4.42711C3.14636 4.46046 3.09042 4.4837 3.03485 4.50693C1.61989 5.10243 0.666033 6.54641 0.674866 8.07807C0.677442 8.52967 0.953074 8.8827 1.38069 8.97976C1.43405 8.99175 1.48962 8.9985 1.54408 8.9985C2.51855 8.99962 3.49302 8.99887 4.46711 9C4.63787 9.00037 4.75268 8.92092 4.78727 8.75303C4.81708 8.60912 4.75121 8.50081 4.62315 8.43035ZM2.73457 2.41611C2.73457 1.41511 3.52466 0.608991 4.50502 0.610116C5.4747 0.610865 6.26517 1.41886 6.26517 2.40824C6.26517 3.404 5.46918 4.20787 4.48551 4.20524C3.52834 4.203 2.73457 3.392 2.73457 2.41611Z" fill="#1E68D7"/>
<path d="M8.01725 6.45378C7.87042 6.4489 7.72322 6.45265 7.57638 6.45265C7.43544 6.45265 7.29339 6.44216 7.15392 6.45565C7.01776 6.46877 6.99384 6.41405 6.99825 6.28888C7.00745 6.00855 7.00267 5.72748 7.00046 5.44678C6.99862 5.24178 6.88528 5.10912 6.71416 5.10462C6.53531 5.09975 6.4146 5.23541 6.41313 5.45015C6.41092 5.74322 6.40872 6.03666 6.4146 6.32973C6.41644 6.42642 6.39142 6.45715 6.29353 6.4549C6.00576 6.44815 5.71761 6.45115 5.42983 6.45303C5.21823 6.4549 5.08502 6.57632 5.0887 6.75809C5.09238 6.93273 5.22228 7.04928 5.42321 7.05115C5.69884 7.05378 5.97521 7.06202 6.25011 7.04778C6.39584 7.04028 6.42049 7.09163 6.41571 7.22467C6.4054 7.49862 6.41129 7.77333 6.41313 8.04803C6.4146 8.26502 6.53016 8.40106 6.70827 8.39994C6.88601 8.39919 6.99936 8.26352 7.00046 8.04503C7.0023 7.75796 7.00561 7.47089 6.99862 7.18419C6.99605 7.07926 7.02438 7.04666 7.12926 7.04928C7.42329 7.05677 7.7177 7.0549 8.01136 7.05078C8.1972 7.04815 8.32306 6.92373 8.3249 6.75509C8.32637 6.58644 8.20051 6.4594 8.01725 6.45378Z" fill="#1E68D7"/>
</svg>
