<svg width="59" height="74" viewBox="0 0 59 74" fill="none" xmlns="http://www.w3.org/2000/svg">
<path d="M12.6641 66.3125V72H11.6836V66.3125H12.6641ZM14.7227 68.6758V72H13.7812V67.7734H14.668L14.7227 68.6758ZM14.5547 69.7305L14.25 69.7266C14.2526 69.4271 14.2943 69.1523 14.375 68.9023C14.4583 68.6523 14.5729 68.4375 14.7188 68.2578C14.8672 68.0781 15.0443 67.9401 15.25 67.8438C15.4557 67.7448 15.6849 67.6953 15.9375 67.6953C16.1406 67.6953 16.3242 67.724 16.4883 67.7812C16.6549 67.8359 16.7969 67.9258 16.9141 68.0508C17.0339 68.1758 17.125 68.3385 17.1875 68.5391C17.25 68.737 17.2812 68.9805 17.2812 69.2695V72H16.3359V69.2656C16.3359 69.0625 16.306 68.9023 16.2461 68.7852C16.1888 68.6654 16.1042 68.5807 15.9922 68.5312C15.8828 68.4792 15.7461 68.4531 15.582 68.4531C15.4206 68.4531 15.276 68.487 15.1484 68.5547C15.0208 68.6224 14.9128 68.7148 14.8242 68.832C14.7383 68.9492 14.6719 69.0846 14.625 69.2383C14.5781 69.3919 14.5547 69.556 14.5547 69.7305ZM20.1797 67.7734V68.4609H17.7969V67.7734H20.1797ZM18.4844 66.7383H19.4258V70.832C19.4258 70.9622 19.444 71.0625 19.4805 71.1328C19.5195 71.2005 19.5729 71.2461 19.6406 71.2695C19.7083 71.293 19.7878 71.3047 19.8789 71.3047C19.944 71.3047 20.0065 71.3008 20.0664 71.293C20.1263 71.2852 20.1745 71.2773 20.2109 71.2695L20.2148 71.9883C20.1367 72.0117 20.0456 72.0326 19.9414 72.0508C19.8398 72.069 19.7227 72.0781 19.5898 72.0781C19.3737 72.0781 19.1823 72.0404 19.0156 71.9648C18.849 71.8867 18.7188 71.7604 18.625 71.5859C18.5312 71.4115 18.4844 71.1797 18.4844 70.8906V66.7383ZM22.7695 72.0781C22.457 72.0781 22.1745 72.0273 21.9219 71.9258C21.6719 71.8216 21.4583 71.6771 21.2812 71.4922C21.1068 71.3073 20.9727 71.0898 20.8789 70.8398C20.7852 70.5898 20.7383 70.3203 20.7383 70.0312V69.875C20.7383 69.5443 20.7865 69.2448 20.8828 68.9766C20.9792 68.7083 21.1133 68.4792 21.2852 68.2891C21.457 68.0964 21.6602 67.9492 21.8945 67.8477C22.1289 67.7461 22.3828 67.6953 22.6562 67.6953C22.9583 67.6953 23.2227 67.7461 23.4492 67.8477C23.6758 67.9492 23.8633 68.0924 24.0117 68.2773C24.1628 68.4596 24.2747 68.6771 24.3477 68.9297C24.4232 69.1823 24.4609 69.4609 24.4609 69.7656V70.168H21.1953V69.4922H23.5312V69.418C23.526 69.2487 23.4922 69.0898 23.4297 68.9414C23.3698 68.793 23.2773 68.6732 23.1523 68.582C23.0273 68.4909 22.8607 68.4453 22.6523 68.4453C22.4961 68.4453 22.3568 68.4792 22.2344 68.5469C22.1146 68.612 22.0143 68.707 21.9336 68.832C21.8529 68.957 21.7904 69.1081 21.7461 69.2852C21.7044 69.4596 21.6836 69.6562 21.6836 69.875V70.0312C21.6836 70.2161 21.7083 70.388 21.7578 70.5469C21.8099 70.7031 21.8854 70.8398 21.9844 70.957C22.0833 71.0742 22.2031 71.1667 22.3438 71.2344C22.4844 71.2995 22.6445 71.332 22.8242 71.332C23.0508 71.332 23.2526 71.2865 23.4297 71.1953C23.6068 71.1042 23.7604 70.9753 23.8906 70.8086L24.3867 71.2891C24.2956 71.4219 24.1771 71.5495 24.0312 71.6719C23.8854 71.7917 23.707 71.8893 23.4961 71.9648C23.2878 72.0404 23.0456 72.0781 22.7695 72.0781ZM26.1406 68.5781V72H25.1992V67.7734H26.0977L26.1406 68.5781ZM27.4336 67.7461L27.4258 68.6211C27.3685 68.6107 27.306 68.6029 27.2383 68.5977C27.1732 68.5924 27.1081 68.5898 27.043 68.5898C26.8815 68.5898 26.7396 68.6133 26.6172 68.6602C26.4948 68.7044 26.3919 68.7695 26.3086 68.8555C26.2279 68.9388 26.1654 69.0404 26.1211 69.1602C26.0768 69.2799 26.0508 69.4141 26.043 69.5625L25.8281 69.5781C25.8281 69.3125 25.8542 69.0664 25.9062 68.8398C25.9583 68.6133 26.0365 68.4141 26.1406 68.2422C26.2474 68.0703 26.3802 67.9362 26.5391 67.8398C26.7005 67.7435 26.8867 67.6953 27.0977 67.6953C27.1549 67.6953 27.2161 67.7005 27.2812 67.7109C27.349 67.7214 27.3997 67.7331 27.4336 67.7461ZM29.4688 71.2539L30.5039 67.7734H31.4805L30.0117 72H29.4023L29.4688 71.2539ZM28.6758 67.7734L29.7305 71.2695L29.7812 72H29.1719L27.6953 67.7734H28.6758ZM33.0703 67.7734V72H32.125V67.7734H33.0703ZM32.0625 66.6641C32.0625 66.5208 32.1094 66.4023 32.2031 66.3086C32.2995 66.2122 32.4323 66.1641 32.6016 66.1641C32.7682 66.1641 32.8997 66.2122 32.9961 66.3086C33.0924 66.4023 33.1406 66.5208 33.1406 66.6641C33.1406 66.8047 33.0924 66.9219 32.9961 67.0156C32.8997 67.1094 32.7682 67.1562 32.6016 67.1562C32.4323 67.1562 32.2995 67.1094 32.2031 67.0156C32.1094 66.9219 32.0625 66.8047 32.0625 66.6641ZM35.9648 72.0781C35.6523 72.0781 35.3698 72.0273 35.1172 71.9258C34.8672 71.8216 34.6536 71.6771 34.4766 71.4922C34.3021 71.3073 34.168 71.0898 34.0742 70.8398C33.9805 70.5898 33.9336 70.3203 33.9336 70.0312V69.875C33.9336 69.5443 33.9818 69.2448 34.0781 68.9766C34.1745 68.7083 34.3086 68.4792 34.4805 68.2891C34.6523 68.0964 34.8555 67.9492 35.0898 67.8477C35.3242 67.7461 35.5781 67.6953 35.8516 67.6953C36.1536 67.6953 36.418 67.7461 36.6445 67.8477C36.8711 67.9492 37.0586 68.0924 37.207 68.2773C37.3581 68.4596 37.4701 68.6771 37.543 68.9297C37.6185 69.1823 37.6562 69.4609 37.6562 69.7656V70.168H34.3906V69.4922H36.7266V69.418C36.7214 69.2487 36.6875 69.0898 36.625 68.9414C36.5651 68.793 36.4727 68.6732 36.3477 68.582C36.2227 68.4909 36.056 68.4453 35.8477 68.4453C35.6914 68.4453 35.5521 68.4792 35.4297 68.5469C35.3099 68.612 35.2096 68.707 35.1289 68.832C35.0482 68.957 34.9857 69.1081 34.9414 69.2852C34.8997 69.4596 34.8789 69.6562 34.8789 69.875V70.0312C34.8789 70.2161 34.9036 70.388 34.9531 70.5469C35.0052 70.7031 35.0807 70.8398 35.1797 70.957C35.2786 71.0742 35.3984 71.1667 35.5391 71.2344C35.6797 71.2995 35.8398 71.332 36.0195 71.332C36.2461 71.332 36.4479 71.2865 36.625 71.1953C36.8021 71.1042 36.9557 70.9753 37.0859 70.8086L37.582 71.2891C37.4909 71.4219 37.3724 71.5495 37.2266 71.6719C37.0807 71.7917 36.9023 71.8893 36.6914 71.9648C36.4831 72.0404 36.2409 72.0781 35.9648 72.0781ZM39.5391 71.0625L40.5156 67.7734H41.1172L40.9531 68.7578L39.9688 72H39.4297L39.5391 71.0625ZM38.9648 67.7734L39.7266 71.0781L39.7891 72H39.1875L38.043 67.7734H38.9648ZM42.0312 71.0391L42.7695 67.7734H43.6875L42.5469 72H41.9453L42.0312 71.0391ZM41.2188 67.7734L42.1836 71.0234L42.3047 72H41.7656L40.7695 68.7539L40.6055 67.7734H41.2188ZM46.6992 70.8555C46.6992 70.7617 46.6758 70.6771 46.6289 70.6016C46.582 70.5234 46.4922 70.4531 46.3594 70.3906C46.2292 70.3281 46.0365 70.2708 45.7812 70.2188C45.5573 70.1693 45.3516 70.1107 45.1641 70.043C44.9792 69.9727 44.8203 69.888 44.6875 69.7891C44.5547 69.6901 44.4518 69.5729 44.3789 69.4375C44.306 69.3021 44.2695 69.1458 44.2695 68.9688C44.2695 68.7969 44.3073 68.6341 44.3828 68.4805C44.4583 68.3268 44.5664 68.1914 44.707 68.0742C44.8477 67.957 45.0182 67.8646 45.2188 67.7969C45.4219 67.7292 45.6484 67.6953 45.8984 67.6953C46.2526 67.6953 46.556 67.7552 46.8086 67.875C47.0638 67.9922 47.2591 68.1523 47.3945 68.3555C47.5299 68.556 47.5977 68.7826 47.5977 69.0352H46.6562C46.6562 68.9232 46.6276 68.819 46.5703 68.7227C46.5156 68.6237 46.4323 68.5443 46.3203 68.4844C46.2083 68.4219 46.0677 68.3906 45.8984 68.3906C45.737 68.3906 45.6029 68.4167 45.4961 68.4688C45.3919 68.5182 45.3138 68.5833 45.2617 68.6641C45.2122 68.7448 45.1875 68.8333 45.1875 68.9297C45.1875 69 45.2005 69.0638 45.2266 69.1211C45.2552 69.1758 45.3021 69.2266 45.3672 69.2734C45.4323 69.3177 45.5208 69.3594 45.6328 69.3984C45.7474 69.4375 45.8906 69.4753 46.0625 69.5117C46.3854 69.5794 46.6628 69.6667 46.8945 69.7734C47.1289 69.8776 47.3086 70.013 47.4336 70.1797C47.5586 70.3438 47.6211 70.5521 47.6211 70.8047C47.6211 70.9922 47.5807 71.1641 47.5 71.3203C47.4219 71.474 47.3073 71.6081 47.1562 71.7227C47.0052 71.8346 46.8242 71.9219 46.6133 71.9844C46.4049 72.0469 46.1706 72.0781 45.9102 72.0781C45.5273 72.0781 45.2031 72.0104 44.9375 71.875C44.6719 71.737 44.4701 71.5612 44.332 71.3477C44.1966 71.1315 44.1289 70.9076 44.1289 70.6758H45.0391C45.0495 70.8503 45.0977 70.9896 45.1836 71.0938C45.2721 71.1953 45.3815 71.2695 45.5117 71.3164C45.6445 71.3607 45.7812 71.3828 45.9219 71.3828C46.0911 71.3828 46.2331 71.3607 46.3477 71.3164C46.4622 71.2695 46.5495 71.207 46.6094 71.1289C46.6693 71.0482 46.6992 70.957 46.6992 70.8555Z" fill="#1E1E1E"/>
<circle cx="29.5" cy="29.5" r="29.5" fill="#1E68D7"/>
<path d="M29.2812 31.0569V42.0862" stroke="white" stroke-width="2.16" stroke-miterlimit="10" stroke-linecap="round" stroke-linejoin="round"/>
<path d="M29.2821 30.6612C30.2487 30.6612 31.0323 29.8779 31.0323 28.9117C31.0323 27.9454 30.2487 27.1621 29.2821 27.1621C28.3156 27.1621 27.532 27.9454 27.532 28.9117C27.532 29.8779 28.3156 30.6612 29.2821 30.6612Z" stroke="white" stroke-width="2.16" stroke-miterlimit="10" stroke-linecap="round" stroke-linejoin="round"/>
<path d="M20.2502 35.9294C18.6317 33.9322 17.6614 31.3872 17.6614 28.6156C17.6614 22.1979 22.8646 16.9939 29.2823 16.9939C35.7 16.9939 40.9028 22.1979 40.9028 28.6156C40.9028 31.386 39.9351 33.9273 38.3169 35.9242" stroke="white" stroke-width="2.16" stroke-miterlimit="10" stroke-linecap="round" stroke-linejoin="round"/>
<path d="M23.4739 31.4904C23.1462 30.7268 22.9641 29.8855 22.9641 29.0007C22.9641 25.5117 25.7925 22.6833 29.2812 22.6833C32.7722 22.6833 35.6 25.5117 35.6 29.0007C35.6 29.9438 35.3941 30.8382 35.0241 31.6412" stroke="white" stroke-width="2.16" stroke-miterlimit="10" stroke-linecap="round" stroke-linejoin="round"/>
</svg>
