<svg width="59" height="74" viewBox="0 0 59 74" fill="none" xmlns="http://www.w3.org/2000/svg">
<path d="M26.3594 71.2227V72H23.5039V71.2227H26.3594ZM23.7773 66.3125V72H22.7969V66.3125H23.7773ZM28.0312 67.7734V72H27.0859V67.7734H28.0312ZM27.0234 66.6641C27.0234 66.5208 27.0703 66.4023 27.1641 66.3086C27.2604 66.2122 27.3932 66.1641 27.5625 66.1641C27.7292 66.1641 27.8607 66.2122 27.957 66.3086C28.0534 66.4023 28.1016 66.5208 28.1016 66.6641C28.1016 66.8047 28.0534 66.9219 27.957 67.0156C27.8607 67.1094 27.7292 67.1562 27.5625 67.1562C27.3932 67.1562 27.2604 67.1094 27.1641 67.0156C27.0703 66.9219 27.0234 66.8047 27.0234 66.6641ZM30.4375 71.2539L31.4727 67.7734H32.4492L30.9805 72H30.3711L30.4375 71.2539ZM29.6445 67.7734L30.6992 71.2695L30.75 72H30.1406L28.6641 67.7734H29.6445ZM34.8398 72.0781C34.5273 72.0781 34.2448 72.0273 33.9922 71.9258C33.7422 71.8216 33.5286 71.6771 33.3516 71.4922C33.1771 71.3073 33.043 71.0898 32.9492 70.8398C32.8555 70.5898 32.8086 70.3203 32.8086 70.0312V69.875C32.8086 69.5443 32.8568 69.2448 32.9531 68.9766C33.0495 68.7083 33.1836 68.4792 33.3555 68.2891C33.5273 68.0964 33.7305 67.9492 33.9648 67.8477C34.1992 67.7461 34.4531 67.6953 34.7266 67.6953C35.0286 67.6953 35.293 67.7461 35.5195 67.8477C35.7461 67.9492 35.9336 68.0924 36.082 68.2773C36.2331 68.4596 36.3451 68.6771 36.418 68.9297C36.4935 69.1823 36.5312 69.4609 36.5312 69.7656V70.168H33.2656V69.4922H35.6016V69.418C35.5964 69.2487 35.5625 69.0898 35.5 68.9414C35.4401 68.793 35.3477 68.6732 35.2227 68.582C35.0977 68.4909 34.931 68.4453 34.7227 68.4453C34.5664 68.4453 34.4271 68.4792 34.3047 68.5469C34.1849 68.612 34.0846 68.707 34.0039 68.832C33.9232 68.957 33.8607 69.1081 33.8164 69.2852C33.7747 69.4596 33.7539 69.6562 33.7539 69.875V70.0312C33.7539 70.2161 33.7786 70.388 33.8281 70.5469C33.8802 70.7031 33.9557 70.8398 34.0547 70.957C34.1536 71.0742 34.2734 71.1667 34.4141 71.2344C34.5547 71.2995 34.7148 71.332 34.8945 71.332C35.1211 71.332 35.3229 71.2865 35.5 71.1953C35.6771 71.1042 35.8307 70.9753 35.9609 70.8086L36.457 71.2891C36.3659 71.4219 36.2474 71.5495 36.1016 71.6719C35.9557 71.7917 35.7773 71.8893 35.5664 71.9648C35.3581 72.0404 35.1159 72.0781 34.8398 72.0781Z" fill="#1E1E1E"/>
<circle cx="29.5" cy="29.5" r="29.5" fill="#1E68D7"/>
<g clip-path="url(#clip0_2001_266)">
<path d="M20.2152 20.1705C15.0294 25.5787 15.028 33.3992 20.2124 38.8362C20.8292 39.4831 20.8777 40.13 20.3495 40.6605C19.8412 41.1722 19.1872 41.1061 18.5504 40.4592C15.5492 37.4101 14.0714 33.7227 14 29.4372C14.1028 25.1906 15.5949 21.5319 18.5861 18.5115C19.2029 17.889 19.894 17.8344 20.3951 18.3462C20.8963 18.8565 20.8306 19.5308 20.2152 20.1705Z" fill="#F6F6F6"/>
<path d="M25.5694 35.4106C26.1848 36.0691 26.2391 36.7361 25.7179 37.2292C25.1882 37.7295 24.5685 37.6519 23.9203 36.9805C21.9028 34.8946 20.9191 32.3802 20.8577 29.4835C20.9291 26.6112 21.9071 24.1184 23.9017 22.0468C24.5243 21.3999 25.1896 21.3438 25.7022 21.8714C26.1777 22.3616 26.1163 23.0086 25.5323 23.6411C22.334 27.1071 22.3497 31.9619 25.5694 35.4106Z" fill="#F6F6F6"/>
<path d="M32.2858 29.4677C32.303 30.7442 31.2706 31.8009 30.0028 31.8037C28.7391 31.8052 27.7026 30.7457 27.7197 29.4705C27.7383 28.2227 28.7606 27.2092 30.0013 27.2078C31.2407 27.2063 32.2673 28.2227 32.2858 29.4677Z" fill="#F6F6F6"/>
<path d="M35.9524 21.9044C37.9356 23.7991 39.1364 26.6959 39.125 29.965C39.0508 32.4089 38.0856 34.8844 36.1166 36.9401C35.4384 37.6474 34.7987 37.7409 34.2619 37.232C33.7179 36.7159 33.785 36.0761 34.4575 35.3631C37.6644 31.9704 37.6515 27.0265 34.4147 23.6108C33.9806 23.1537 33.7293 22.685 34.0377 22.074C34.4147 21.3294 35.2771 21.2604 35.9524 21.9044Z" fill="#F6F6F6"/>
<path d="M46 29.5036C45.9115 33.7431 44.4394 37.4089 41.4567 40.4408C40.8085 41.0978 40.1703 41.1725 39.6534 40.6751C39.1137 40.1562 39.1865 39.4992 39.859 38.8063C44.9791 33.5231 44.9948 25.5546 39.8947 20.2412C39.2708 19.5914 39.1937 18.9201 39.6848 18.4169C40.2088 17.8821 40.8613 17.954 41.5381 18.6512C44.4594 21.6644 45.9072 25.2929 46 29.5036Z" fill="#F6F6F6"/>
</g>
<defs>
<clipPath id="clip0_2001_266">
<rect width="32" height="23" fill="white" transform="translate(14 18)"/>
</clipPath>
</defs>
</svg>
