<svg width="59" height="74" viewBox="0 0 59 74" fill="none" xmlns="http://www.w3.org/2000/svg">
<path d="M11.9102 66.3125H13.9219C14.3542 66.3125 14.7227 66.3776 15.0273 66.5078C15.332 66.638 15.5651 66.8307 15.7266 67.0859C15.8906 67.3385 15.9727 67.651 15.9727 68.0234C15.9727 68.3073 15.9206 68.5573 15.8164 68.7734C15.7122 68.9896 15.5651 69.1719 15.375 69.3203C15.1849 69.4661 14.9583 69.5794 14.6953 69.6602L14.3984 69.8047H12.5898L12.582 69.0273H13.9375C14.1719 69.0273 14.3672 68.9857 14.5234 68.9023C14.6797 68.819 14.7969 68.7057 14.875 68.5625C14.9557 68.4167 14.9961 68.2526 14.9961 68.0703C14.9961 67.8724 14.957 67.7005 14.8789 67.5547C14.8034 67.4062 14.6862 67.293 14.5273 67.2148C14.3685 67.1341 14.1667 67.0938 13.9219 67.0938H12.8906V72H11.9102V66.3125ZM15.1562 72L13.8203 69.4453L14.8477 69.4414L16.2031 71.9492V72H15.1562ZM18.7188 72.0781C18.4062 72.0781 18.1237 72.0273 17.8711 71.9258C17.6211 71.8216 17.4076 71.6771 17.2305 71.4922C17.056 71.3073 16.9219 71.0898 16.8281 70.8398C16.7344 70.5898 16.6875 70.3203 16.6875 70.0312V69.875C16.6875 69.5443 16.7357 69.2448 16.832 68.9766C16.9284 68.7083 17.0625 68.4792 17.2344 68.2891C17.4062 68.0964 17.6094 67.9492 17.8438 67.8477C18.0781 67.7461 18.332 67.6953 18.6055 67.6953C18.9076 67.6953 19.1719 67.7461 19.3984 67.8477C19.625 67.9492 19.8125 68.0924 19.9609 68.2773C20.112 68.4596 20.224 68.6771 20.2969 68.9297C20.3724 69.1823 20.4102 69.4609 20.4102 69.7656V70.168H17.1445V69.4922H19.4805V69.418C19.4753 69.2487 19.4414 69.0898 19.3789 68.9414C19.319 68.793 19.2266 68.6732 19.1016 68.582C18.9766 68.4909 18.8099 68.4453 18.6016 68.4453C18.4453 68.4453 18.306 68.4792 18.1836 68.5469C18.0638 68.612 17.9635 68.707 17.8828 68.832C17.8021 68.957 17.7396 69.1081 17.6953 69.2852C17.6536 69.4596 17.6328 69.6562 17.6328 69.875V70.0312C17.6328 70.2161 17.6576 70.388 17.707 70.5469C17.7591 70.7031 17.8346 70.8398 17.9336 70.957C18.0326 71.0742 18.1523 71.1667 18.293 71.2344C18.4336 71.2995 18.5938 71.332 18.7734 71.332C19 71.332 19.2018 71.2865 19.3789 71.1953C19.556 71.1042 19.7096 70.9753 19.8398 70.8086L20.3359 71.2891C20.2448 71.4219 20.1263 71.5495 19.9805 71.6719C19.8346 71.7917 19.6562 71.8893 19.4453 71.9648C19.237 72.0404 18.9948 72.0781 18.7188 72.0781ZM22.8711 71.3281C23.0247 71.3281 23.1628 71.2982 23.2852 71.2383C23.4102 71.1758 23.5104 71.0898 23.5859 70.9805C23.6641 70.8711 23.707 70.7448 23.7148 70.6016H24.6016C24.5964 70.875 24.5156 71.1237 24.3594 71.3477C24.2031 71.5716 23.9961 71.75 23.7383 71.8828C23.4805 72.013 23.1953 72.0781 22.8828 72.0781C22.5599 72.0781 22.2786 72.0234 22.0391 71.9141C21.7995 71.8021 21.6003 71.6484 21.4414 71.4531C21.2826 71.2578 21.1628 71.0326 21.082 70.7773C21.0039 70.5221 20.9648 70.2487 20.9648 69.957V69.8203C20.9648 69.5286 21.0039 69.2552 21.082 69C21.1628 68.7422 21.2826 68.5156 21.4414 68.3203C21.6003 68.125 21.7995 67.9727 22.0391 67.8633C22.2786 67.7513 22.5586 67.6953 22.8789 67.6953C23.2174 67.6953 23.5143 67.763 23.7695 67.8984C24.0247 68.0312 24.2253 68.2174 24.3711 68.457C24.5195 68.694 24.5964 68.9701 24.6016 69.2852H23.7148C23.707 69.1289 23.668 68.9883 23.5977 68.8633C23.5299 68.7357 23.4336 68.6341 23.3086 68.5586C23.1862 68.4831 23.0391 68.4453 22.8672 68.4453C22.6771 68.4453 22.5195 68.4844 22.3945 68.5625C22.2695 68.638 22.1719 68.7422 22.1016 68.875C22.0312 69.0052 21.9805 69.1523 21.9492 69.3164C21.9206 69.4779 21.9062 69.6458 21.9062 69.8203V69.957C21.9062 70.1315 21.9206 70.3008 21.9492 70.4648C21.9779 70.6289 22.0273 70.776 22.0977 70.9062C22.1706 71.0339 22.2695 71.1367 22.3945 71.2148C22.5195 71.2904 22.6784 71.3281 22.8711 71.3281ZM25.1445 69.9336V69.8438C25.1445 69.5391 25.1888 69.2565 25.2773 68.9961C25.3659 68.7331 25.4935 68.5052 25.6602 68.3125C25.8294 68.1172 26.0352 67.9661 26.2773 67.8594C26.5221 67.75 26.7982 67.6953 27.1055 67.6953C27.4154 67.6953 27.6914 67.75 27.9336 67.8594C28.1784 67.9661 28.3854 68.1172 28.5547 68.3125C28.724 68.5052 28.8529 68.7331 28.9414 68.9961C29.0299 69.2565 29.0742 69.5391 29.0742 69.8438V69.9336C29.0742 70.2383 29.0299 70.5208 28.9414 70.7812C28.8529 71.0417 28.724 71.2695 28.5547 71.4648C28.3854 71.6576 28.1797 71.8086 27.9375 71.918C27.6953 72.0247 27.4206 72.0781 27.1133 72.0781C26.8034 72.0781 26.526 72.0247 26.2812 71.918C26.0391 71.8086 25.8333 71.6576 25.6641 71.4648C25.4948 71.2695 25.3659 71.0417 25.2773 70.7812C25.1888 70.5208 25.1445 70.2383 25.1445 69.9336ZM26.0859 69.8438V69.9336C26.0859 70.1237 26.1055 70.3034 26.1445 70.4727C26.1836 70.6419 26.2448 70.7904 26.3281 70.918C26.4115 71.0456 26.5182 71.1458 26.6484 71.2188C26.7786 71.2917 26.9336 71.3281 27.1133 71.3281C27.2878 71.3281 27.4388 71.2917 27.5664 71.2188C27.6966 71.1458 27.8034 71.0456 27.8867 70.918C27.9701 70.7904 28.0312 70.6419 28.0703 70.4727C28.112 70.3034 28.1328 70.1237 28.1328 69.9336V69.8438C28.1328 69.6562 28.112 69.4792 28.0703 69.3125C28.0312 69.1432 27.9688 68.9935 27.8828 68.8633C27.7995 68.7331 27.6927 68.6315 27.5625 68.5586C27.4349 68.4831 27.2826 68.4453 27.1055 68.4453C26.9284 68.4453 26.7747 68.4831 26.6445 68.5586C26.5169 68.6315 26.4115 68.7331 26.3281 68.8633C26.2448 68.9935 26.1836 69.1432 26.1445 69.3125C26.1055 69.4792 26.0859 69.6562 26.0859 69.8438ZM30.8086 68.5781V72H29.8672V67.7734H30.7656L30.8086 68.5781ZM32.1016 67.7461L32.0938 68.6211C32.0365 68.6107 31.974 68.6029 31.9062 68.5977C31.8411 68.5924 31.776 68.5898 31.7109 68.5898C31.5495 68.5898 31.4076 68.6133 31.2852 68.6602C31.1628 68.7044 31.0599 68.7695 30.9766 68.8555C30.8958 68.9388 30.8333 69.0404 30.7891 69.1602C30.7448 69.2799 30.7188 69.4141 30.7109 69.5625L30.4961 69.5781C30.4961 69.3125 30.5221 69.0664 30.5742 68.8398C30.6263 68.6133 30.7044 68.4141 30.8086 68.2422C30.9154 68.0703 31.0482 67.9362 31.207 67.8398C31.3685 67.7435 31.5547 67.6953 31.7656 67.6953C31.8229 67.6953 31.8841 67.7005 31.9492 67.7109C32.0169 67.7214 32.0677 67.7331 32.1016 67.7461ZM35.1914 71.125V66H36.1367V72H35.2812L35.1914 71.125ZM32.4414 69.9336V69.8516C32.4414 69.5312 32.4792 69.2396 32.5547 68.9766C32.6302 68.7109 32.7396 68.4831 32.8828 68.293C33.026 68.1003 33.2005 67.9531 33.4062 67.8516C33.612 67.7474 33.8438 67.6953 34.1016 67.6953C34.3568 67.6953 34.5807 67.7448 34.7734 67.8438C34.9661 67.9427 35.1302 68.0846 35.2656 68.2695C35.401 68.4518 35.5091 68.6706 35.5898 68.9258C35.6706 69.1784 35.7279 69.4596 35.7617 69.7695V70.0312C35.7279 70.3333 35.6706 70.6094 35.5898 70.8594C35.5091 71.1094 35.401 71.3255 35.2656 71.5078C35.1302 71.6901 34.9648 71.8307 34.7695 71.9297C34.5768 72.0286 34.3516 72.0781 34.0938 72.0781C33.8385 72.0781 33.6081 72.0247 33.4023 71.918C33.1992 71.8112 33.026 71.6615 32.8828 71.4688C32.7396 71.276 32.6302 71.0495 32.5547 70.7891C32.4792 70.526 32.4414 70.2409 32.4414 69.9336ZM33.3828 69.8516V69.9336C33.3828 70.1263 33.3997 70.306 33.4336 70.4727C33.4701 70.6393 33.526 70.7865 33.6016 70.9141C33.6771 71.0391 33.7747 71.138 33.8945 71.2109C34.0169 71.2812 34.1628 71.3164 34.332 71.3164C34.5456 71.3164 34.7214 71.2695 34.8594 71.1758C34.9974 71.082 35.1055 70.9557 35.1836 70.7969C35.2643 70.6354 35.319 70.4557 35.3477 70.2578V69.5508C35.332 69.3971 35.2995 69.2539 35.25 69.1211C35.2031 68.9883 35.1393 68.8724 35.0586 68.7734C34.9779 68.6719 34.8776 68.5938 34.7578 68.5391C34.6406 68.4818 34.5013 68.4531 34.3398 68.4531C34.168 68.4531 34.0221 68.4896 33.9023 68.5625C33.7826 68.6354 33.6836 68.7357 33.6055 68.8633C33.5299 68.9909 33.474 69.1393 33.4375 69.3086C33.401 69.4779 33.3828 69.6589 33.3828 69.8516ZM38.1289 67.7734V72H37.1836V67.7734H38.1289ZM37.1211 66.6641C37.1211 66.5208 37.168 66.4023 37.2617 66.3086C37.3581 66.2122 37.4909 66.1641 37.6602 66.1641C37.8268 66.1641 37.9583 66.2122 38.0547 66.3086C38.151 66.4023 38.1992 66.5208 38.1992 66.6641C38.1992 66.8047 38.151 66.9219 38.0547 67.0156C37.9583 67.1094 37.8268 67.1562 37.6602 67.1562C37.4909 67.1562 37.3581 67.1094 37.2617 67.0156C37.168 66.9219 37.1211 66.8047 37.1211 66.6641ZM40.0938 68.6758V72H39.1523V67.7734H40.0391L40.0938 68.6758ZM39.9258 69.7305L39.6211 69.7266C39.6237 69.4271 39.6654 69.1523 39.7461 68.9023C39.8294 68.6523 39.944 68.4375 40.0898 68.2578C40.2383 68.0781 40.4154 67.9401 40.6211 67.8438C40.8268 67.7448 41.056 67.6953 41.3086 67.6953C41.5117 67.6953 41.6953 67.724 41.8594 67.7812C42.026 67.8359 42.168 67.9258 42.2852 68.0508C42.4049 68.1758 42.4961 68.3385 42.5586 68.5391C42.6211 68.737 42.6523 68.9805 42.6523 69.2695V72H41.707V69.2656C41.707 69.0625 41.6771 68.9023 41.6172 68.7852C41.5599 68.6654 41.4753 68.5807 41.3633 68.5312C41.2539 68.4792 41.1172 68.4531 40.9531 68.4531C40.7917 68.4531 40.6471 68.487 40.5195 68.5547C40.3919 68.6224 40.2839 68.7148 40.1953 68.832C40.1094 68.9492 40.043 69.0846 39.9961 69.2383C39.9492 69.3919 39.9258 69.556 39.9258 69.7305ZM46.3203 67.7734H47.1758V71.8828C47.1758 72.263 47.0951 72.5859 46.9336 72.8516C46.7721 73.1172 46.5469 73.319 46.2578 73.457C45.9688 73.5977 45.6341 73.668 45.2539 73.668C45.0924 73.668 44.9128 73.6445 44.7148 73.5977C44.5195 73.5508 44.3294 73.4753 44.1445 73.3711C43.9622 73.2695 43.8099 73.1354 43.6875 72.9688L44.1289 72.4141C44.2799 72.5938 44.4466 72.7253 44.6289 72.8086C44.8112 72.8919 45.0026 72.9336 45.2031 72.9336C45.4193 72.9336 45.6029 72.8932 45.7539 72.8125C45.9076 72.7344 46.026 72.6185 46.1094 72.4648C46.1927 72.3112 46.2344 72.1237 46.2344 71.9023V68.7305L46.3203 67.7734ZM43.4492 69.9336V69.8516C43.4492 69.5312 43.4883 69.2396 43.5664 68.9766C43.6445 68.7109 43.7565 68.4831 43.9023 68.293C44.0482 68.1003 44.2253 67.9531 44.4336 67.8516C44.6419 67.7474 44.8776 67.6953 45.1406 67.6953C45.4141 67.6953 45.6471 67.7448 45.8398 67.8438C46.0352 67.9427 46.1979 68.0846 46.3281 68.2695C46.4583 68.4518 46.5599 68.6706 46.6328 68.9258C46.7083 69.1784 46.7643 69.4596 46.8008 69.7695V70.0312C46.7669 70.3333 46.7096 70.6094 46.6289 70.8594C46.5482 71.1094 46.4414 71.3255 46.3086 71.5078C46.1758 71.6901 46.0117 71.8307 45.8164 71.9297C45.6237 72.0286 45.3958 72.0781 45.1328 72.0781C44.875 72.0781 44.6419 72.0247 44.4336 71.918C44.2279 71.8112 44.0508 71.6615 43.9023 71.4688C43.7565 71.276 43.6445 71.0495 43.5664 70.7891C43.4883 70.526 43.4492 70.2409 43.4492 69.9336ZM44.3906 69.8516V69.9336C44.3906 70.1263 44.4089 70.306 44.4453 70.4727C44.4844 70.6393 44.543 70.7865 44.6211 70.9141C44.7018 71.0391 44.8034 71.138 44.9258 71.2109C45.0508 71.2812 45.1979 71.3164 45.3672 71.3164C45.5885 71.3164 45.7695 71.2695 45.9102 71.1758C46.0534 71.082 46.1628 70.9557 46.2383 70.7969C46.3164 70.6354 46.3711 70.4557 46.4023 70.2578V69.5508C46.3867 69.3971 46.3542 69.2539 46.3047 69.1211C46.2578 68.9883 46.194 68.8724 46.1133 68.7734C46.0326 68.6719 45.931 68.5938 45.8086 68.5391C45.6862 68.4818 45.5417 68.4531 45.375 68.4531C45.2057 68.4531 45.0586 68.4896 44.9336 68.5625C44.8086 68.6354 44.7057 68.7357 44.625 68.8633C44.5469 68.9909 44.4883 69.1393 44.4492 69.3086C44.4102 69.4779 44.3906 69.6589 44.3906 69.8516Z" fill="#1E1E1E"/>
<circle cx="29.5" cy="29.5" r="29.5" fill="#1E68D7"/>
<g clip-path="url(#clip0_2001_277)">
<path d="M10.0003 28.97C10.0109 25.1088 13.2379 21.9834 17.1966 21.9998C21.0989 22.0162 24.297 25.1655 24.3 28.9909C24.3031 32.8506 21.0822 36.0013 17.1357 35.9983C13.1922 35.9968 9.9896 32.8416 10.0003 28.97Z" fill="white"/>
<path d="M31.7923 31.1403C31.3822 30.7776 31.4508 30.6 31.8746 30.2657C33.2206 29.2075 33.7221 27.8135 33.2831 26.1582C32.8852 24.6582 31.4493 23.4821 29.829 23.3194C29.1506 23.2523 28.4616 23.2478 27.7803 23.2702C26.9846 23.2955 26.5974 23.709 26.5943 24.5105C26.5852 27.4135 26.5852 30.3164 26.5959 33.2194C26.5974 33.9657 27.0638 34.4373 27.733 34.4299C28.3946 34.4239 28.8488 33.9463 28.8717 33.2C28.8884 32.6343 28.8747 32.0672 28.8747 31.3105C29.7207 32.2194 30.4341 32.9866 31.1475 33.7537C31.8395 34.5 32.4798 34.6388 33.0377 34.1612C33.6306 33.6537 33.5636 33.0314 32.8258 32.2314C32.4859 31.8627 32.1673 31.4702 31.7923 31.1403ZM31.1384 27.4388C30.992 28.297 30.114 28.9717 29.2223 28.9388C28.9555 28.9299 28.8656 28.8403 28.8717 28.5896C28.8839 28.1179 28.8747 27.6463 28.8747 27.1746V26.2791C28.8762 25.4358 28.9982 25.3478 29.8351 25.5791C30.6841 25.8149 31.2725 26.6537 31.1384 27.4388Z" fill="white"/>
<path d="M38.394 23.2834C38.8498 23.2834 39.3101 23.2461 39.7613 23.2923C40.3756 23.3565 40.7293 23.758 40.7461 24.3401C40.7628 24.9595 40.4046 25.355 39.7613 25.47C39.7369 25.4744 39.711 25.4774 39.6866 25.4819C39.2461 25.558 38.5403 25.2909 38.4108 25.6207C38.1974 26.164 38.333 26.8386 38.3224 27.458C38.3163 27.764 38.5449 27.7312 38.7461 27.7341C39.0754 27.7401 39.4092 27.7177 39.7339 27.758C40.3787 27.8401 40.7522 28.2371 40.7476 28.858C40.743 29.4789 40.3604 29.8565 39.7187 29.952C39.6943 29.955 39.6684 29.955 39.6424 29.961C39.2141 30.052 38.5434 29.7267 38.3925 30.1341C38.1882 30.6849 38.3239 31.3565 38.3269 31.9774C38.3285 32.2341 38.5403 32.2043 38.7156 32.2088C39.0708 32.2177 39.429 32.1953 39.7781 32.2431C40.3909 32.3267 40.7369 32.7222 40.7476 33.3043C40.7598 33.8864 40.4336 34.3297 39.8208 34.3953C38.8635 34.4983 37.894 34.5043 36.9368 34.3909C36.3651 34.3222 36.045 33.9162 36.042 33.352C36.0313 30.3476 36.0282 27.3416 36.045 24.3371C36.0481 23.6953 36.4642 23.3386 37.1014 23.2804C37.5282 23.2416 37.9626 23.2729 38.394 23.2729C38.394 23.2744 38.394 23.2789 38.394 23.2834Z" fill="white"/>
<path d="M43.0537 29C43.0247 27.9567 43.0034 26.9164 43.5155 25.9492C44.3753 24.3209 45.7258 23.4089 47.5977 23.2746C48.4056 23.2164 48.9544 23.6418 48.997 24.3089C49.0382 24.9373 48.5931 25.3821 47.8111 25.497C46.0886 25.7492 45.3402 26.5925 45.3356 28.2925C45.3341 28.888 45.3234 29.4836 45.3402 30.0776C45.3767 31.3298 46.2471 32.2791 47.5093 32.4641C47.6602 32.4865 47.8126 32.494 47.962 32.5209C48.6251 32.6418 49.0351 33.1074 48.997 33.6895C48.9559 34.3074 48.462 34.7209 47.7486 34.7328C45.7411 34.7656 43.7701 33.2597 43.2122 31.2895C42.9988 30.5328 43.0659 29.7656 43.0537 29Z" fill="white"/>
</g>
<defs>
<clipPath id="clip0_2001_277">
<rect width="39" height="14" fill="white" transform="translate(10 22)"/>
</clipPath>
</defs>
</svg>
