<svg width="59" height="74" viewBox="0 0 59 74" fill="none" xmlns="http://www.w3.org/2000/svg">
<circle cx="29.5" cy="29.5" r="29.5" fill="#1E68D7"/>
<g clip-path="url(#clip0_2001_133)">
<path d="M22.4681 39.7434C22.4145 39.2795 22.6792 39.3328 22.9852 39.3029C23.4331 39.2594 23.4782 39.4774 23.3966 39.8016C23.5314 40.3011 23.2057 40.2212 22.909 40.2589C22.4464 40.3179 22.5034 40.0482 22.4681 39.7434Z" fill="#F6F6F6"/>
<path d="M22.4681 37.8733C22.4157 37.4102 22.6791 37.4627 22.9856 37.4328C23.4339 37.3893 23.4782 37.6073 23.3966 37.9314C23.5314 38.4309 23.2061 38.3514 22.9094 38.3887C22.4472 38.4473 22.5025 38.1785 22.4681 37.8733Z" fill="#F6F6F6"/>
<path d="M23.4232 41.6971C23.4933 42.1757 23.1938 42.0905 22.9012 42.129C22.4222 42.1921 22.5066 41.8979 22.4697 41.6049C22.4107 41.1325 22.6836 41.1529 23.011 41.1923C23.4949 41.0612 23.3818 41.414 23.4232 41.6971Z" fill="#F6F6F6"/>
<path d="M22.9836 16.874C19.6212 16.8621 16.8775 19.5793 16.8701 22.9283C16.8632 26.2634 19.5646 29.0056 22.8803 29.0281C26.2468 29.0514 29.0069 26.3445 29.0241 23.0025C29.0417 19.6371 26.3296 16.8855 22.9836 16.874ZM26.4365 26.7199C24.7279 28.3098 22.2034 28.5442 20.2342 27.3153C18.2756 26.0929 17.3692 23.7417 18.0084 21.5429C18.6673 19.2761 20.6951 17.7767 23.0581 17.8087C25.3208 17.8394 27.3187 19.4219 27.919 21.6461C28.0014 21.951 27.9903 22.1784 27.7457 22.4292C26.8496 23.3487 25.9702 24.2859 25.1114 25.2398C24.8639 25.5143 24.7025 25.5426 24.4927 25.2427C24.4599 25.1955 24.4116 25.1591 24.3702 25.1177C23.8031 24.5571 23.3261 23.7532 22.6451 23.5007C21.8736 23.2151 20.918 23.4499 20.0449 23.4081C19.5753 23.3856 19.6966 23.6737 19.6708 23.9257C19.6392 24.2338 19.7093 24.3604 20.0662 24.3658C20.8344 24.3764 21.6855 24.1117 22.3509 24.4817C22.9885 24.8366 23.4478 25.5131 23.9846 26.0491C24.8287 26.8924 24.8291 26.8936 25.6609 26.0093C26.4152 25.2078 27.1675 24.4039 27.9206 23.6011C27.8748 24.8796 27.3261 25.8917 26.4365 26.7199ZM26.6414 22.4935C26.9336 22.455 27.2335 22.5407 27.163 22.0621C27.1216 21.7789 27.2351 21.4257 26.7512 21.5572C26.4234 21.5175 26.1509 21.4974 26.2099 21.9699C26.2464 22.2628 26.1624 22.5571 26.6414 22.4935ZM24.7389 22.4767C25.0602 22.5013 25.3609 22.555 25.2933 22.0694C25.254 21.7867 25.363 21.4679 24.8701 21.5396C24.5882 21.581 24.2632 21.4712 24.3431 21.9629C24.387 22.235 24.2456 22.6103 24.7389 22.4767ZM22.8942 22.4903C23.1659 22.4464 23.5417 22.5878 23.4081 22.0944C23.4327 21.7732 23.4863 21.4724 23.0004 21.54C22.7181 21.5794 22.3993 21.4704 22.471 21.9629C22.512 22.2452 22.4021 22.5698 22.8942 22.4903ZM21.0459 22.4948C21.3524 22.4604 21.6593 22.5169 21.5335 22.0555C21.6007 21.7068 21.5486 21.4982 21.1086 21.5363C20.7914 21.5638 20.5529 21.5347 20.5972 21.9846C20.6279 22.301 20.5968 22.5448 21.0459 22.4948ZM19.663 22.0469C19.7392 21.6884 19.6585 21.5068 19.2323 21.5355C18.9029 21.558 18.6915 21.5548 18.7263 21.9908C18.7521 22.3194 18.7468 22.5366 19.1823 22.4956C19.5007 22.4653 19.7855 22.4968 19.663 22.0469ZM22.9836 16.874C19.6212 16.8621 16.8775 19.5793 16.8701 22.9283C16.8632 26.2634 19.5646 29.0056 22.8803 29.0281C26.2468 29.0514 29.0069 26.3445 29.0241 23.0025C29.0417 19.6371 26.3296 16.8855 22.9836 16.874ZM26.4365 26.7199C24.7279 28.3098 22.2034 28.5442 20.2342 27.3153C18.2756 26.0929 17.3692 23.7417 18.0084 21.5429C18.6673 19.2761 20.6951 17.7767 23.0581 17.8087C25.3208 17.8394 27.3187 19.4219 27.919 21.6461C28.0014 21.951 27.9903 22.1784 27.7457 22.4292C26.8496 23.3487 25.9702 24.2859 25.1114 25.2398C24.8639 25.5143 24.7025 25.5426 24.4927 25.2427C24.4599 25.1955 24.4116 25.1591 24.3702 25.1177C23.8031 24.5571 23.3261 23.7532 22.6451 23.5007C21.8736 23.2151 20.918 23.4499 20.0449 23.4081C19.5753 23.3856 19.6966 23.6737 19.6708 23.9257C19.6392 24.2338 19.7093 24.3604 20.0662 24.3658C20.8344 24.3764 21.6855 24.1117 22.3509 24.4817C22.9885 24.8366 23.4478 25.5131 23.9846 26.0491C24.8287 26.8924 24.8291 26.8936 25.6609 26.0093C26.4152 25.2078 27.1675 24.4039 27.9206 23.6011C27.8748 24.8796 27.3261 25.8917 26.4365 26.7199ZM26.6414 22.4935C26.9336 22.455 27.2335 22.5407 27.163 22.0621C27.1216 21.7789 27.2351 21.4257 26.7512 21.5572C26.4234 21.5175 26.1509 21.4974 26.2099 21.9699C26.2464 22.2628 26.1624 22.5571 26.6414 22.4935ZM24.7389 22.4767C25.0602 22.5013 25.3609 22.555 25.2933 22.0694C25.254 21.7867 25.363 21.4679 24.8701 21.5396C24.5882 21.581 24.2632 21.4712 24.3431 21.9629C24.387 22.235 24.2456 22.6103 24.7389 22.4767ZM22.8942 22.4903C23.1659 22.4464 23.5417 22.5878 23.4081 22.0944C23.4327 21.7732 23.4863 21.4724 23.0004 21.54C22.7181 21.5794 22.3993 21.4704 22.471 21.9629C22.512 22.2452 22.4021 22.5698 22.8942 22.4903ZM21.0459 22.4948C21.3524 22.4604 21.6593 22.5169 21.5335 22.0555C21.6007 21.7068 21.5486 21.4982 21.1086 21.5363C20.7914 21.5638 20.5529 21.5347 20.5972 21.9846C20.6279 22.301 20.5968 22.5448 21.0459 22.4948ZM19.663 22.0469C19.7392 21.6884 19.6585 21.5068 19.2323 21.5355C18.9029 21.558 18.6915 21.5548 18.7263 21.9908C18.7521 22.3194 18.7468 22.5366 19.1823 22.4956C19.5007 22.4653 19.7855 22.4968 19.663 22.0469ZM43.5161 22.4837C43.1314 22.5538 43.0232 22.3923 43.0412 22.0133C43.0723 21.3523 43.0211 20.6877 43.0596 20.0276C43.0855 19.5895 42.8154 19.6846 42.579 19.6793C42.3315 19.6735 42.0812 19.6088 42.1045 20.0341C42.1426 20.7139 42.0844 21.3991 42.1258 22.078C42.1516 22.5013 41.9398 22.4845 41.6419 22.4915C41.3235 22.4993 41.1199 22.4722 41.1687 22.0666C41.1879 21.9051 41.3026 21.6687 41.0547 21.5556C40.6348 21.3642 40.2205 21.6146 40.2561 22.0817C40.2893 22.512 40.0591 22.4788 39.7685 22.4915C39.4424 22.5054 39.276 22.4612 39.2994 22.0637C39.3379 21.4036 39.2781 20.7377 39.3211 20.0784C39.3494 19.6448 39.1187 19.6854 38.8314 19.6707C38.5008 19.6535 38.3402 19.7067 38.3647 20.1009C38.4028 20.7217 38.3516 21.3478 38.3832 21.9695C38.4028 22.355 38.3275 22.494 37.8939 22.5038C37.4084 22.5144 37.4174 22.2801 37.4362 21.9424C37.4535 21.6318 37.4252 21.3187 37.444 21.0081C37.4612 20.7266 37.4031 20.6078 37.0736 20.5992C36.6434 20.5881 36.4266 20.6721 36.4971 21.1577C36.5385 21.4437 36.4742 21.7449 36.5119 22.0321C36.5668 22.446 36.3746 22.5034 36.0238 22.4944C35.7632 22.4874 35.6477 22.3341 35.5072 22.176C34.4205 20.9532 33.3109 19.7502 32.257 18.4995C31.896 18.0709 31.7084 18.1254 31.3961 18.5114C31.0548 18.9331 30.6553 19.3076 30.2353 19.7514C30.1124 19.5141 30.0263 19.3408 29.9342 19.1712C28.1927 15.961 24.4767 14.3412 20.9463 15.2517C17.4811 16.1454 15.0086 19.3371 15 22.9291C14.9918 26.4265 17.2541 29.4825 20.6337 30.5479C20.8 30.6 21.0987 30.5614 21.0664 30.8298C20.9578 31.7321 21.3839 32.6906 20.7713 33.5429C20.6103 33.7675 20.607 34.0526 20.6074 34.3305C20.6115 36.7264 20.6062 39.1219 20.6111 41.5174C20.6144 42.936 21.6072 43.9833 22.9377 43.9883C24.2718 43.9936 25.279 42.9495 25.2831 41.537C25.2892 39.1415 25.2827 36.7456 25.2872 34.3501C25.2876 34.0727 25.3085 33.7609 25.1274 33.5658C24.7602 33.1708 24.8197 32.7123 24.8176 32.2521C24.816 31.9018 24.8451 31.5482 24.8098 31.2015C24.7701 30.8081 24.8971 30.6467 25.2954 30.5246C29.0499 29.3739 31.4133 25.6709 30.7598 21.7928C30.6008 20.8471 30.9171 20.3242 31.5059 19.7506C31.7706 19.4928 31.8817 19.485 32.1214 19.7616C33.0896 20.8807 34.0894 21.9723 35.0601 23.0889C35.2703 23.3307 35.4822 23.4274 35.8034 23.4258C38.3746 23.4126 40.9453 23.4102 43.5161 23.4274C43.8959 23.4303 44 23.3327 44 22.9508C44 22.5689 43.8955 22.4149 43.5161 22.4837ZM24.3423 41.6862C24.3366 42.4615 23.7056 43.0474 22.9569 43.0532C22.187 43.0589 21.5613 42.4561 21.5495 41.6481C21.5318 40.4425 21.5449 39.237 21.5449 38.0315C21.5449 36.8259 21.5597 35.62 21.538 34.4149C21.5286 33.8826 21.7424 33.6728 22.2661 33.6986C22.7705 33.7228 23.277 33.7056 23.7826 33.7035C24.1698 33.7019 24.3505 33.8953 24.3501 34.278C24.3484 36.7473 24.3595 39.2169 24.3423 41.6862ZM22.0121 31.8473C22.0121 30.8974 22.0121 30.8974 22.941 30.8983C23.8822 30.8987 23.8822 30.8987 23.8822 31.8346C23.8822 32.7688 23.8822 32.7689 22.9537 32.7689C22.0121 32.7689 22.0121 32.7689 22.0121 31.8473ZM22.9278 29.9632C19.0688 29.957 15.9289 26.7994 15.9351 22.9308C15.9412 19.0708 19.0975 15.9324 22.9672 15.9385C26.827 15.9447 29.9657 19.1011 29.9596 22.9705C29.953 26.8297 26.7959 29.9697 22.9278 29.9632ZM22.9836 16.874C19.6212 16.8621 16.8775 19.5793 16.8701 22.9283C16.8632 26.2634 19.5646 29.0056 22.8803 29.0281C26.2468 29.0514 29.0069 26.3445 29.0241 23.0025C29.0417 19.6371 26.3296 16.8855 22.9836 16.874ZM27.7457 22.4292C26.8496 23.3487 25.9702 24.2859 25.1114 25.2398C24.8639 25.5143 24.7025 25.5426 24.4927 25.2427C24.4599 25.1955 24.4116 25.1591 24.3702 25.1177C23.8031 24.5571 23.3261 23.7532 22.6451 23.5007C21.8736 23.2151 20.918 23.4499 20.0449 23.4081C19.5753 23.3856 19.6966 23.6737 19.6708 23.9257C19.6392 24.2338 19.7093 24.3604 20.0662 24.3658C20.8344 24.3764 21.6855 24.1117 22.3509 24.4817C22.9885 24.8366 23.4478 25.5131 23.9846 26.0491C24.8287 26.8924 24.8291 26.8936 25.6609 26.0093C26.4152 25.2078 27.1675 24.4039 27.9206 23.6011C27.8748 24.8796 27.3261 25.8917 26.4365 26.7199C24.7279 28.3098 22.2034 28.5442 20.2342 27.3153C18.2756 26.0929 17.3692 23.7417 18.0084 21.5429C18.6673 19.2761 20.6951 17.7767 23.0581 17.8087C25.3208 17.8394 27.3187 19.4219 27.919 21.6461C28.0014 21.951 27.9903 22.1784 27.7457 22.4292ZM26.2099 21.9699C26.2464 22.2628 26.1624 22.5571 26.6414 22.4935C26.9336 22.455 27.2335 22.5407 27.163 22.0621C27.1216 21.7789 27.2351 21.4257 26.7512 21.5572C26.4234 21.5175 26.1509 21.4974 26.2099 21.9699ZM24.8701 21.5396C24.5882 21.581 24.2632 21.4712 24.3431 21.9629C24.387 22.235 24.2456 22.6103 24.7389 22.4767C25.0602 22.5013 25.3609 22.555 25.2933 22.0694C25.254 21.7867 25.363 21.4679 24.8701 21.5396ZM23.0004 21.54C22.7181 21.5794 22.3993 21.4704 22.471 21.9629C22.512 22.2452 22.4021 22.5698 22.8942 22.4903C23.1659 22.4464 23.5417 22.5878 23.4081 22.0944C23.4327 21.7732 23.4863 21.4724 23.0004 21.54ZM21.1086 21.5363C20.7914 21.5638 20.5529 21.5347 20.5972 21.9846C20.6279 22.301 20.5968 22.5448 21.0459 22.4948C21.3524 22.4604 21.6593 22.5169 21.5335 22.0555C21.6007 21.7068 21.5486 21.4982 21.1086 21.5363ZM19.2323 21.5355C18.9029 21.558 18.6915 21.5548 18.7263 21.9908C18.7521 22.3194 18.7468 22.5366 19.1823 22.4956C19.5007 22.4653 19.7855 22.4968 19.663 22.0469C19.7392 21.6884 19.6585 21.5068 19.2323 21.5355Z" fill="#F6F6F6"/>
<path d="M43.9939 43.5206C43.9615 42.8212 43.9849 42.1188 43.9849 41.4177C43.9849 36.841 43.9783 32.2643 43.9955 27.6877C43.9972 27.2562 43.9038 27.1209 43.4596 27.1472C42.7413 27.1894 42.0189 27.1586 41.2986 27.1586C40.2447 27.1586 40.2447 27.1586 40.2447 28.2105V42.5245C40.2447 42.8044 40.3393 43.0904 39.837 43.074C39.4063 43.06 39.2961 42.9683 39.2986 42.5286C39.3178 38.517 39.3023 34.5049 39.3207 30.4933C39.3223 30.0618 39.2293 29.9319 38.7848 29.9516C37.8911 29.9914 36.9929 29.9897 36.0984 29.9524C35.6625 29.934 35.5563 30.05 35.5584 30.4892C35.5776 34.5008 35.5662 38.5129 35.576 42.5249C35.5768 42.8797 35.5686 43.076 35.104 43.0748C34.6467 43.0736 34.6266 42.89 34.6279 42.5286C34.6393 39.1205 34.6287 35.7121 34.6434 32.3041C34.6451 31.9271 34.5545 31.8111 34.1681 31.8238C33.2536 31.8537 32.3365 31.8599 31.4228 31.8222C30.9852 31.8042 30.8807 31.9222 30.8836 32.3602C30.904 35.7486 30.8905 39.1373 30.9012 42.5261C30.9024 42.883 30.8901 43.0752 30.4279 43.0748C29.9682 43.074 29.9514 42.8871 29.953 42.5273C29.9653 39.7426 29.9522 36.9574 29.969 34.1726C29.9711 33.7924 29.8748 33.6821 29.4912 33.6944C28.5771 33.7235 27.6601 33.7305 26.7463 33.692C26.305 33.6735 26.2055 33.7973 26.2087 34.2316C26.2296 37.3086 26.23 40.3859 26.2083 43.4628C26.205 43.9017 26.3132 44.0033 26.748 44C29.5326 43.9779 32.3177 43.989 35.1023 43.989C37.9067 43.989 40.711 43.9812 43.5153 43.998C43.8951 44 44.0119 43.905 43.9939 43.5206ZM28.5693 43.0654C27.1548 43.0551 27.1548 43.074 27.1548 41.6623V38.8001C27.1548 37.554 27.1643 36.3079 27.1483 35.0618C27.1442 34.7508 27.2024 34.6332 27.5515 34.6287C29.0249 34.609 29.0249 34.5955 29.0249 36.0883C29.0249 38.2498 29.0172 40.4109 29.0323 42.5724C29.0348 42.9289 28.9758 43.0686 28.5693 43.0654ZM33.2601 43.0637C31.8297 43.0633 31.8297 43.0777 31.8297 41.6779C31.8297 38.8739 31.8391 36.0698 31.8194 33.2662C31.8166 32.8556 31.9182 32.7515 32.3279 32.7577C33.6994 32.777 33.6998 32.7589 33.6998 34.1443V37.9417C33.6998 39.4992 33.6871 41.0575 33.7092 42.6146C33.7141 42.9773 33.6203 43.0641 33.2601 43.0637ZM37.8489 43.0658C36.5053 43.0391 36.5049 43.0605 36.5049 41.7086V36.9767C36.5049 35.1073 36.5156 33.2375 36.4955 31.3686C36.4918 30.9896 36.5885 30.8859 36.972 30.8883C38.3746 30.8969 38.3746 30.8814 38.3746 32.302C38.3746 35.7101 38.366 39.1177 38.3857 42.5253C38.3885 42.9592 38.2894 43.0748 37.8489 43.0658ZM42.5819 43.0637C41.1797 43.0555 41.1797 43.0707 41.1797 41.6492C41.1797 37.3065 41.1871 32.9638 41.1687 28.6211C41.167 28.1855 41.2678 28.0728 41.7067 28.0814C43.0494 28.1081 43.0498 28.0872 43.0498 29.4398V35.6326C43.0498 37.9498 43.0408 40.2675 43.0589 42.5847C43.0621 42.965 42.9638 43.0662 42.5819 43.0637Z" fill="#F6F6F6"/>
<path d="M43.9939 43.5206C43.9615 42.8212 43.9849 42.1188 43.9849 41.4177C43.9849 36.841 43.9783 32.2643 43.9955 27.6877C43.9972 27.2562 43.9038 27.1209 43.4596 27.1472C42.7413 27.1894 42.0189 27.1586 41.2986 27.1586C40.2447 27.1586 40.2447 27.1586 40.2447 28.2105V42.5245C40.2447 42.8044 40.3393 43.0904 39.837 43.074C39.4063 43.06 39.2961 42.9683 39.2986 42.5286C39.3178 38.517 39.3023 34.5049 39.3207 30.4933C39.3223 30.0618 39.2293 29.9319 38.7848 29.9516C37.8911 29.9914 36.9929 29.9897 36.0984 29.9524C35.6625 29.934 35.5563 30.05 35.5584 30.4892C35.5776 34.5008 35.5662 38.5129 35.576 42.5249C35.5768 42.8797 35.5686 43.076 35.104 43.0748C34.6467 43.0736 34.6266 42.89 34.6279 42.5286C34.6393 39.1205 34.6287 35.7121 34.6434 32.3041C34.6451 31.9271 34.5545 31.8111 34.1681 31.8238C33.2536 31.8537 32.3365 31.8599 31.4228 31.8222C30.9852 31.8042 30.8807 31.9222 30.8836 32.3602C30.904 35.7486 30.8905 39.1373 30.9012 42.5261C30.9024 42.883 30.8901 43.0752 30.4279 43.0748C29.9682 43.074 29.9514 42.8871 29.953 42.5273C29.9653 39.7426 29.9522 36.9574 29.969 34.1726C29.9711 33.7924 29.8748 33.6821 29.4912 33.6944C28.5771 33.7235 27.6601 33.7305 26.7463 33.692C26.305 33.6735 26.2055 33.7973 26.2087 34.2316C26.2296 37.3086 26.23 40.3859 26.2083 43.4628C26.205 43.9017 26.3132 44.0033 26.748 44C29.5326 43.9779 32.3177 43.989 35.1023 43.989C37.9067 43.989 40.711 43.9812 43.5153 43.998C43.8951 44 44.0119 43.905 43.9939 43.5206ZM28.5693 43.0654C27.1548 43.0551 27.1548 43.074 27.1548 41.6623V38.8001C27.1548 37.554 27.1643 36.3079 27.1483 35.0618C27.1442 34.7508 27.2024 34.6332 27.5515 34.6287C29.0249 34.609 29.0249 34.5955 29.0249 36.0883C29.0249 38.2498 29.0172 40.4109 29.0323 42.5724C29.0348 42.9289 28.9758 43.0686 28.5693 43.0654ZM33.2601 43.0637C31.8297 43.0633 31.8297 43.0777 31.8297 41.6779C31.8297 38.8739 31.8391 36.0698 31.8194 33.2662C31.8166 32.8556 31.9182 32.7515 32.3279 32.7577C33.6994 32.777 33.6998 32.7589 33.6998 34.1443V37.9417C33.6998 39.4992 33.6871 41.0575 33.7092 42.6146C33.7141 42.9773 33.6203 43.0641 33.2601 43.0637ZM37.8489 43.0658C36.5053 43.0391 36.5049 43.0605 36.5049 41.7086V36.9767C36.5049 35.1073 36.5156 33.2375 36.4955 31.3686C36.4918 30.9896 36.5885 30.8859 36.972 30.8883C38.3746 30.8969 38.3746 30.8814 38.3746 32.302C38.3746 35.7101 38.366 39.1177 38.3857 42.5253C38.3885 42.9592 38.2894 43.0748 37.8489 43.0658ZM42.5819 43.0637C41.1797 43.0555 41.1797 43.0707 41.1797 41.6492C41.1797 37.3065 41.1871 32.9638 41.1687 28.6211C41.167 28.1855 41.2678 28.0728 41.7067 28.0814C43.0494 28.1081 43.0498 28.0872 43.0498 29.4398V35.6326C43.0498 37.9498 43.0408 40.2675 43.0589 42.5847C43.0621 42.965 42.9638 43.0662 42.5819 43.0637Z" fill="white"/>
<path d="M22.4681 39.7434C22.4145 39.2795 22.6792 39.3328 22.9852 39.3029C23.4331 39.2594 23.4782 39.4774 23.3966 39.8016C23.5314 40.3011 23.2057 40.2212 22.909 40.2589C22.4464 40.3179 22.5034 40.0482 22.4681 39.7434Z" fill="white"/>
<path d="M22.4681 37.8733C22.4157 37.4102 22.6791 37.4627 22.9856 37.4328C23.4339 37.3893 23.4782 37.6073 23.3966 37.9314C23.5314 38.4309 23.2061 38.3514 22.9094 38.3887C22.4472 38.4473 22.5025 38.1785 22.4681 37.8733Z" fill="white"/>
<path d="M23.4232 41.6971C23.4933 42.1757 23.1938 42.0905 22.9012 42.129C22.4222 42.1921 22.5066 41.8979 22.4697 41.6049C22.4107 41.1325 22.6836 41.1529 23.011 41.1923C23.4949 41.0612 23.3818 41.414 23.4232 41.6971Z" fill="white"/>
<path d="M22.9836 16.874C19.6212 16.8621 16.8775 19.5793 16.8701 22.9283C16.8632 26.2634 19.5646 29.0056 22.8803 29.0281C26.2468 29.0514 29.0069 26.3445 29.0241 23.0025C29.0417 19.6371 26.3296 16.8855 22.9836 16.874ZM26.4365 26.7199C24.7279 28.3098 22.2034 28.5442 20.2342 27.3153C18.2756 26.0929 17.3692 23.7417 18.0084 21.5429C18.6673 19.2761 20.6951 17.7767 23.0581 17.8087C25.3208 17.8394 27.3187 19.4219 27.919 21.6461C28.0014 21.951 27.9903 22.1784 27.7457 22.4292C26.8496 23.3487 25.9702 24.2859 25.1114 25.2398C24.8639 25.5143 24.7025 25.5426 24.4927 25.2427C24.4599 25.1955 24.4116 25.1591 24.3702 25.1177C23.8031 24.5571 23.3261 23.7532 22.6451 23.5007C21.8736 23.2151 20.918 23.4499 20.0449 23.4081C19.5753 23.3856 19.6966 23.6737 19.6708 23.9257C19.6392 24.2338 19.7093 24.3604 20.0662 24.3658C20.8344 24.3764 21.6855 24.1117 22.3509 24.4817C22.9885 24.8366 23.4478 25.5131 23.9846 26.0491C24.8287 26.8924 24.8291 26.8936 25.6609 26.0093C26.4152 25.2078 27.1675 24.4039 27.9206 23.6011C27.8748 24.8796 27.3261 25.8917 26.4365 26.7199ZM26.6414 22.4935C26.9336 22.455 27.2335 22.5407 27.163 22.0621C27.1216 21.7789 27.2351 21.4257 26.7512 21.5572C26.4234 21.5175 26.1509 21.4974 26.2099 21.9699C26.2464 22.2628 26.1624 22.5571 26.6414 22.4935ZM24.7389 22.4767C25.0602 22.5013 25.3609 22.555 25.2933 22.0694C25.254 21.7867 25.363 21.4679 24.8701 21.5396C24.5882 21.581 24.2632 21.4712 24.3431 21.9629C24.387 22.235 24.2456 22.6103 24.7389 22.4767ZM22.8942 22.4903C23.1659 22.4464 23.5417 22.5878 23.4081 22.0944C23.4327 21.7732 23.4863 21.4724 23.0004 21.54C22.7181 21.5794 22.3993 21.4704 22.471 21.9629C22.512 22.2452 22.4021 22.5698 22.8942 22.4903ZM21.0459 22.4948C21.3524 22.4604 21.6593 22.5169 21.5335 22.0555C21.6007 21.7068 21.5486 21.4982 21.1086 21.5363C20.7914 21.5638 20.5529 21.5347 20.5972 21.9846C20.6279 22.301 20.5968 22.5448 21.0459 22.4948ZM19.663 22.0469C19.7392 21.6884 19.6585 21.5068 19.2323 21.5355C18.9029 21.558 18.6915 21.5548 18.7263 21.9908C18.7521 22.3194 18.7468 22.5366 19.1823 22.4956C19.5007 22.4653 19.7855 22.4968 19.663 22.0469ZM22.9836 16.874C19.6212 16.8621 16.8775 19.5793 16.8701 22.9283C16.8632 26.2634 19.5646 29.0056 22.8803 29.0281C26.2468 29.0514 29.0069 26.3445 29.0241 23.0025C29.0417 19.6371 26.3296 16.8855 22.9836 16.874ZM26.4365 26.7199C24.7279 28.3098 22.2034 28.5442 20.2342 27.3153C18.2756 26.0929 17.3692 23.7417 18.0084 21.5429C18.6673 19.2761 20.6951 17.7767 23.0581 17.8087C25.3208 17.8394 27.3187 19.4219 27.919 21.6461C28.0014 21.951 27.9903 22.1784 27.7457 22.4292C26.8496 23.3487 25.9702 24.2859 25.1114 25.2398C24.8639 25.5143 24.7025 25.5426 24.4927 25.2427C24.4599 25.1955 24.4116 25.1591 24.3702 25.1177C23.8031 24.5571 23.3261 23.7532 22.6451 23.5007C21.8736 23.2151 20.918 23.4499 20.0449 23.4081C19.5753 23.3856 19.6966 23.6737 19.6708 23.9257C19.6392 24.2338 19.7093 24.3604 20.0662 24.3658C20.8344 24.3764 21.6855 24.1117 22.3509 24.4817C22.9885 24.8366 23.4478 25.5131 23.9846 26.0491C24.8287 26.8924 24.8291 26.8936 25.6609 26.0093C26.4152 25.2078 27.1675 24.4039 27.9206 23.6011C27.8748 24.8796 27.3261 25.8917 26.4365 26.7199ZM26.6414 22.4935C26.9336 22.455 27.2335 22.5407 27.163 22.0621C27.1216 21.7789 27.2351 21.4257 26.7512 21.5572C26.4234 21.5175 26.1509 21.4974 26.2099 21.9699C26.2464 22.2628 26.1624 22.5571 26.6414 22.4935ZM24.7389 22.4767C25.0602 22.5013 25.3609 22.555 25.2933 22.0694C25.254 21.7867 25.363 21.4679 24.8701 21.5396C24.5882 21.581 24.2632 21.4712 24.3431 21.9629C24.387 22.235 24.2456 22.6103 24.7389 22.4767ZM22.8942 22.4903C23.1659 22.4464 23.5417 22.5878 23.4081 22.0944C23.4327 21.7732 23.4863 21.4724 23.0004 21.54C22.7181 21.5794 22.3993 21.4704 22.471 21.9629C22.512 22.2452 22.4021 22.5698 22.8942 22.4903ZM21.0459 22.4948C21.3524 22.4604 21.6593 22.5169 21.5335 22.0555C21.6007 21.7068 21.5486 21.4982 21.1086 21.5363C20.7914 21.5638 20.5529 21.5347 20.5972 21.9846C20.6279 22.301 20.5968 22.5448 21.0459 22.4948ZM19.663 22.0469C19.7392 21.6884 19.6585 21.5068 19.2323 21.5355C18.9029 21.558 18.6915 21.5548 18.7263 21.9908C18.7521 22.3194 18.7468 22.5366 19.1823 22.4956C19.5007 22.4653 19.7855 22.4968 19.663 22.0469ZM43.5161 22.4837C43.1314 22.5538 43.0232 22.3923 43.0412 22.0133C43.0723 21.3523 43.0211 20.6877 43.0596 20.0276C43.0855 19.5895 42.8154 19.6846 42.579 19.6793C42.3315 19.6735 42.0812 19.6088 42.1045 20.0341C42.1426 20.7139 42.0844 21.3991 42.1258 22.078C42.1516 22.5013 41.9398 22.4845 41.6419 22.4915C41.3235 22.4993 41.1199 22.4722 41.1687 22.0666C41.1879 21.9051 41.3026 21.6687 41.0547 21.5556C40.6348 21.3642 40.2205 21.6146 40.2561 22.0817C40.2893 22.512 40.0591 22.4788 39.7685 22.4915C39.4424 22.5054 39.276 22.4612 39.2994 22.0637C39.3379 21.4036 39.2781 20.7377 39.3211 20.0784C39.3494 19.6448 39.1187 19.6854 38.8314 19.6707C38.5008 19.6535 38.3402 19.7067 38.3647 20.1009C38.4028 20.7217 38.3516 21.3478 38.3832 21.9695C38.4028 22.355 38.3275 22.494 37.8939 22.5038C37.4084 22.5144 37.4174 22.2801 37.4362 21.9424C37.4535 21.6318 37.4252 21.3187 37.444 21.0081C37.4612 20.7266 37.4031 20.6078 37.0736 20.5992C36.6434 20.5881 36.4266 20.6721 36.4971 21.1577C36.5385 21.4437 36.4742 21.7449 36.5119 22.0321C36.5668 22.446 36.3746 22.5034 36.0238 22.4944C35.7632 22.4874 35.6477 22.3341 35.5072 22.176C34.4205 20.9532 33.3109 19.7502 32.257 18.4995C31.896 18.0709 31.7084 18.1254 31.3961 18.5114C31.0548 18.9331 30.6553 19.3076 30.2353 19.7514C30.1124 19.5141 30.0263 19.3408 29.9342 19.1712C28.1927 15.961 24.4767 14.3412 20.9463 15.2517C17.4811 16.1454 15.0086 19.3371 15 22.9291C14.9918 26.4265 17.2541 29.4825 20.6337 30.5479C20.8 30.6 21.0987 30.5614 21.0664 30.8298C20.9578 31.7321 21.3839 32.6906 20.7713 33.5429C20.6103 33.7675 20.607 34.0526 20.6074 34.3305C20.6115 36.7264 20.6062 39.1219 20.6111 41.5174C20.6144 42.936 21.6072 43.9833 22.9377 43.9883C24.2718 43.9936 25.279 42.9495 25.2831 41.537C25.2892 39.1415 25.2827 36.7456 25.2872 34.3501C25.2876 34.0727 25.3085 33.7609 25.1274 33.5658C24.7602 33.1708 24.8197 32.7123 24.8176 32.2521C24.816 31.9018 24.8451 31.5482 24.8098 31.2015C24.7701 30.8081 24.8971 30.6467 25.2954 30.5246C29.0499 29.3739 31.4133 25.6709 30.7598 21.7928C30.6008 20.8471 30.9171 20.3242 31.5059 19.7506C31.7706 19.4928 31.8817 19.485 32.1214 19.7616C33.0896 20.8807 34.0894 21.9723 35.0601 23.0889C35.2703 23.3307 35.4822 23.4274 35.8034 23.4258C38.3746 23.4126 40.9453 23.4102 43.5161 23.4274C43.8959 23.4303 44 23.3327 44 22.9508C44 22.5689 43.8955 22.4149 43.5161 22.4837ZM24.3423 41.6862C24.3366 42.4615 23.7056 43.0474 22.9569 43.0532C22.187 43.0589 21.5613 42.4561 21.5495 41.6481C21.5318 40.4425 21.5449 39.237 21.5449 38.0315C21.5449 36.8259 21.5597 35.62 21.538 34.4149C21.5286 33.8826 21.7424 33.6728 22.2661 33.6986C22.7705 33.7228 23.277 33.7056 23.7826 33.7035C24.1698 33.7019 24.3505 33.8953 24.3501 34.278C24.3484 36.7473 24.3595 39.2169 24.3423 41.6862ZM22.0121 31.8473C22.0121 30.8974 22.0121 30.8974 22.941 30.8983C23.8822 30.8987 23.8822 30.8987 23.8822 31.8346C23.8822 32.7688 23.8822 32.7689 22.9537 32.7689C22.0121 32.7689 22.0121 32.7689 22.0121 31.8473ZM22.9278 29.9632C19.0688 29.957 15.9289 26.7994 15.9351 22.9308C15.9412 19.0708 19.0975 15.9324 22.9672 15.9385C26.827 15.9447 29.9657 19.1011 29.9596 22.9705C29.953 26.8297 26.7959 29.9697 22.9278 29.9632ZM22.9836 16.874C19.6212 16.8621 16.8775 19.5793 16.8701 22.9283C16.8632 26.2634 19.5646 29.0056 22.8803 29.0281C26.2468 29.0514 29.0069 26.3445 29.0241 23.0025C29.0417 19.6371 26.3296 16.8855 22.9836 16.874ZM27.7457 22.4292C26.8496 23.3487 25.9702 24.2859 25.1114 25.2398C24.8639 25.5143 24.7025 25.5426 24.4927 25.2427C24.4599 25.1955 24.4116 25.1591 24.3702 25.1177C23.8031 24.5571 23.3261 23.7532 22.6451 23.5007C21.8736 23.2151 20.918 23.4499 20.0449 23.4081C19.5753 23.3856 19.6966 23.6737 19.6708 23.9257C19.6392 24.2338 19.7093 24.3604 20.0662 24.3658C20.8344 24.3764 21.6855 24.1117 22.3509 24.4817C22.9885 24.8366 23.4478 25.5131 23.9846 26.0491C24.8287 26.8924 24.8291 26.8936 25.6609 26.0093C26.4152 25.2078 27.1675 24.4039 27.9206 23.6011C27.8748 24.8796 27.3261 25.8917 26.4365 26.7199C24.7279 28.3098 22.2034 28.5442 20.2342 27.3153C18.2756 26.0929 17.3692 23.7417 18.0084 21.5429C18.6673 19.2761 20.6951 17.7767 23.0581 17.8087C25.3208 17.8394 27.3187 19.4219 27.919 21.6461C28.0014 21.951 27.9903 22.1784 27.7457 22.4292ZM26.2099 21.9699C26.2464 22.2628 26.1624 22.5571 26.6414 22.4935C26.9336 22.455 27.2335 22.5407 27.163 22.0621C27.1216 21.7789 27.2351 21.4257 26.7512 21.5572C26.4234 21.5175 26.1509 21.4974 26.2099 21.9699ZM24.8701 21.5396C24.5882 21.581 24.2632 21.4712 24.3431 21.9629C24.387 22.235 24.2456 22.6103 24.7389 22.4767C25.0602 22.5013 25.3609 22.555 25.2933 22.0694C25.254 21.7867 25.363 21.4679 24.8701 21.5396ZM23.0004 21.54C22.7181 21.5794 22.3993 21.4704 22.471 21.9629C22.512 22.2452 22.4021 22.5698 22.8942 22.4903C23.1659 22.4464 23.5417 22.5878 23.4081 22.0944C23.4327 21.7732 23.4863 21.4724 23.0004 21.54ZM21.1086 21.5363C20.7914 21.5638 20.5529 21.5347 20.5972 21.9846C20.6279 22.301 20.5968 22.5448 21.0459 22.4948C21.3524 22.4604 21.6593 22.5169 21.5335 22.0555C21.6007 21.7068 21.5486 21.4982 21.1086 21.5363ZM19.2323 21.5355C18.9029 21.558 18.6915 21.5548 18.7263 21.9908C18.7521 22.3194 18.7468 22.5366 19.1823 22.4956C19.5007 22.4653 19.7855 22.4968 19.663 22.0469C19.7392 21.6884 19.6585 21.5068 19.2323 21.5355Z" fill="white"/>
<path d="M19.1822 22.4955C18.7466 22.5365 18.752 22.3193 18.7262 21.9907C18.6913 21.5547 18.9028 21.558 19.2322 21.5354C19.6583 21.5067 19.7391 21.6883 19.6628 22.0468C19.7854 22.4967 19.5006 22.4652 19.1822 22.4955Z" fill="#F6F6F6"/>
<path d="M20.5971 21.9845C20.5528 21.5346 20.7913 21.5637 21.1085 21.5362C21.5485 21.4981 21.6006 21.7067 21.5334 22.0554C21.6592 22.5168 21.3523 22.4602 21.0458 22.4946C20.5967 22.5446 20.6278 22.3008 20.5971 21.9845Z" fill="#F6F6F6"/>
<path d="M22.4709 21.9627C22.3992 21.4702 22.718 21.5792 23.0003 21.5399C23.4863 21.4723 23.4326 21.773 23.408 22.0943C23.5416 22.5876 23.1659 22.4463 22.8942 22.4901C22.4021 22.5696 22.5119 22.2451 22.4709 21.9627Z" fill="#F6F6F6"/>
<path d="M24.3431 21.9628C24.2632 21.4711 24.5881 21.5809 24.87 21.5395C25.363 21.4678 25.254 21.7866 25.2933 22.0694C25.3609 22.5549 25.0602 22.5013 24.7389 22.4767C24.2456 22.6103 24.387 22.2349 24.3431 21.9628Z" fill="#F6F6F6"/>
<path d="M26.21 21.9698C26.151 21.4973 26.4235 21.5174 26.7513 21.5572C27.2352 21.4256 27.1217 21.7788 27.1631 22.062C27.2335 22.5406 26.9336 22.455 26.6415 22.4935C26.1625 22.557 26.2465 22.2628 26.21 21.9698Z" fill="#F6F6F6"/>
<path d="M22.9836 16.8738C19.6212 16.8619 16.8775 19.5791 16.8701 22.9281C16.8632 26.2632 19.5646 29.0054 22.8803 29.0279C26.2468 29.0513 29.0069 26.3443 29.0241 23.0023C29.0417 19.6369 26.3296 16.8853 22.9836 16.8738ZM26.4365 26.7197C24.7279 28.3096 22.2034 28.544 20.2342 27.3151C18.2756 26.0927 17.3692 23.7415 18.0084 21.5427C18.6673 19.2759 20.6951 17.7765 23.0582 17.8085C25.3208 17.8392 27.3187 19.4217 27.919 21.646C28.0014 21.9508 27.9903 22.1782 27.7457 22.429C26.8496 23.3485 25.9703 24.2857 25.1114 25.2396C24.8639 25.5142 24.7025 25.5424 24.4927 25.2425C24.4599 25.1954 24.4116 25.1589 24.3702 25.1175C23.8031 24.5569 23.3261 23.753 22.6451 23.5006C21.8736 23.215 20.918 23.4498 20.0449 23.408C19.5753 23.3854 19.6966 23.6735 19.6708 23.9255C19.6392 24.2336 19.7093 24.3603 20.0662 24.3656C20.8345 24.3762 21.6855 24.1115 22.3509 24.4815C22.9885 24.8364 23.4478 25.5129 23.9846 26.0489C24.8287 26.8922 24.8291 26.8934 25.6609 26.0092C26.4152 25.2077 27.1675 24.4037 27.9207 23.601C27.8748 24.8794 27.3261 25.8916 26.4365 26.7197Z" fill="#F6F6F6"/>
<path d="M22.4681 39.7434C22.4145 39.2795 22.6792 39.3328 22.9852 39.3029C23.4331 39.2594 23.4782 39.4774 23.3966 39.8016C23.5314 40.3011 23.2057 40.2212 22.909 40.2589C22.4464 40.3179 22.5034 40.0482 22.4681 39.7434Z" fill="#F6F6F6"/>
<path d="M22.4681 37.8733C22.4157 37.4102 22.6791 37.4627 22.9856 37.4328C23.4339 37.3893 23.4782 37.6073 23.3966 37.9314C23.5314 38.4309 23.2061 38.3514 22.9094 38.3887C22.4472 38.4473 22.5025 38.1785 22.4681 37.8733Z" fill="#F6F6F6"/>
<path d="M22.9012 42.129C22.4222 42.1921 22.5066 41.8979 22.4697 41.6049C22.4107 41.1325 22.6836 41.1529 23.011 41.1923C23.4949 41.0612 23.3818 41.414 23.4232 41.6971C23.4933 42.1757 23.1938 42.0905 22.9012 42.129Z" fill="#F6F6F6"/>
<path d="M19.1822 22.4955C18.7466 22.5365 18.752 22.3193 18.7262 21.9907C18.6913 21.5547 18.9028 21.558 19.2322 21.5354C19.6583 21.5067 19.7391 21.6883 19.6628 22.0468C19.7854 22.4967 19.5006 22.4652 19.1822 22.4955Z" fill="white"/>
<path d="M20.5971 21.9845C20.5528 21.5346 20.7913 21.5637 21.1085 21.5362C21.5485 21.4981 21.6006 21.7067 21.5334 22.0554C21.6592 22.5168 21.3523 22.4602 21.0458 22.4946C20.5967 22.5446 20.6278 22.3008 20.5971 21.9845Z" fill="white"/>
<path d="M22.4709 21.9627C22.3992 21.4702 22.718 21.5792 23.0003 21.5399C23.4863 21.4723 23.4326 21.773 23.408 22.0943C23.5416 22.5876 23.1659 22.4463 22.8942 22.4901C22.4021 22.5696 22.5119 22.2451 22.4709 21.9627Z" fill="white"/>
<path d="M24.3431 21.9628C24.2632 21.4711 24.5881 21.5809 24.87 21.5395C25.363 21.4678 25.254 21.7866 25.2933 22.0694C25.3609 22.5549 25.0602 22.5013 24.7389 22.4767C24.2456 22.6103 24.387 22.2349 24.3431 21.9628Z" fill="white"/>
<path d="M26.21 21.9698C26.151 21.4973 26.4235 21.5174 26.7513 21.5572C27.2352 21.4256 27.1217 21.7788 27.1631 22.062C27.2335 22.5406 26.9336 22.455 26.6415 22.4935C26.1625 22.557 26.2465 22.2628 26.21 21.9698Z" fill="white"/>
<path d="M22.9836 16.8738C19.6212 16.8619 16.8775 19.5791 16.8701 22.9281C16.8632 26.2632 19.5646 29.0054 22.8803 29.0279C26.2468 29.0513 29.0069 26.3443 29.0241 23.0023C29.0417 19.6369 26.3296 16.8853 22.9836 16.8738ZM26.4365 26.7197C24.7279 28.3096 22.2034 28.544 20.2342 27.3151C18.2756 26.0927 17.3692 23.7415 18.0084 21.5427C18.6673 19.2759 20.6951 17.7765 23.0582 17.8085C25.3208 17.8392 27.3187 19.4217 27.919 21.646C28.0014 21.9508 27.9903 22.1782 27.7457 22.429C26.8496 23.3485 25.9703 24.2857 25.1114 25.2396C24.8639 25.5142 24.7025 25.5424 24.4927 25.2425C24.4599 25.1954 24.4116 25.1589 24.3702 25.1175C23.8031 24.5569 23.3261 23.753 22.6451 23.5006C21.8736 23.215 20.918 23.4498 20.0449 23.408C19.5753 23.3854 19.6966 23.6735 19.6708 23.9255C19.6392 24.2336 19.7093 24.3603 20.0662 24.3656C20.8345 24.3762 21.6855 24.1115 22.3509 24.4815C22.9885 24.8364 23.4478 25.5129 23.9846 26.0489C24.8287 26.8922 24.8291 26.8934 25.6609 26.0092C26.4152 25.2077 27.1675 24.4037 27.9207 23.601C27.8748 24.8794 27.3261 25.8916 26.4365 26.7197Z" fill="white"/>
<path d="M23.3966 37.9314C23.5314 38.4309 23.2061 38.3514 22.9094 38.3887C22.4472 38.4473 22.5025 38.1785 22.4681 37.8733C22.4157 37.4102 22.6791 37.4627 22.9856 37.4328C23.4339 37.3893 23.4782 37.6073 23.3966 37.9314Z" fill="white"/>
<path d="M23.3966 39.8016C23.5314 40.3011 23.2057 40.2212 22.909 40.2589C22.4464 40.3179 22.5034 40.0482 22.4681 39.7434C22.4145 39.2795 22.6792 39.3328 22.9852 39.3029C23.4331 39.2594 23.4782 39.4774 23.3966 39.8016Z" fill="white"/>
<path d="M22.9012 42.129C22.4222 42.1921 22.5066 41.8979 22.4697 41.6049C22.4107 41.1325 22.6836 41.1529 23.011 41.1923C23.4949 41.0612 23.3818 41.414 23.4232 41.6971C23.4933 42.1757 23.1938 42.0905 22.9012 42.129Z" fill="white"/>
<path d="M19.6628 22.0468C19.7854 22.4967 19.5006 22.4652 19.1822 22.4955C18.7466 22.5365 18.752 22.3193 18.7262 21.9907C18.6913 21.5547 18.9028 21.558 19.2322 21.5354C19.6583 21.5067 19.7391 21.6883 19.6628 22.0468Z" fill="#F6F6F6"/>
<path d="M21.5334 22.0554C21.6592 22.5168 21.3523 22.4602 21.0458 22.4946C20.5967 22.5446 20.6278 22.3008 20.5971 21.9845C20.5528 21.5346 20.7913 21.5637 21.1085 21.5362C21.5485 21.4981 21.6006 21.7067 21.5334 22.0554Z" fill="#F6F6F6"/>
<path d="M23.408 22.0943C23.5416 22.5876 23.1659 22.4463 22.8942 22.4901C22.4021 22.5696 22.5119 22.2451 22.4709 21.9627C22.3992 21.4702 22.718 21.5792 23.0003 21.5399C23.4863 21.4723 23.4326 21.773 23.408 22.0943Z" fill="#F6F6F6"/>
<path d="M25.2933 22.0694C25.3609 22.5549 25.0602 22.5013 24.7389 22.4767C24.2456 22.6103 24.387 22.2349 24.3431 21.9628C24.2632 21.4711 24.5881 21.5809 24.87 21.5395C25.363 21.4678 25.254 21.7866 25.2933 22.0694Z" fill="#F6F6F6"/>
<path d="M26.6415 22.4935C26.1625 22.557 26.2465 22.2628 26.21 21.9698C26.151 21.4973 26.4235 21.5174 26.7513 21.5572C27.2352 21.4256 27.1217 21.7788 27.1631 22.062C27.2335 22.5406 26.9336 22.455 26.6415 22.4935Z" fill="#F6F6F6"/>
<path d="M19.1822 22.4955C18.7466 22.5365 18.752 22.3193 18.7262 21.9907C18.6913 21.5547 18.9028 21.558 19.2322 21.5354C19.6583 21.5067 19.7391 21.6883 19.6628 22.0468C19.7854 22.4967 19.5006 22.4652 19.1822 22.4955Z" fill="white"/>
<path d="M21.0458 22.4946C20.5967 22.5446 20.6278 22.3008 20.5971 21.9845C20.5528 21.5346 20.7913 21.5637 21.1085 21.5362C21.5485 21.4981 21.6006 21.7067 21.5334 22.0554C21.6592 22.5168 21.3523 22.4602 21.0458 22.4946Z" fill="white"/>
<path d="M22.8942 22.4901C22.4021 22.5696 22.5119 22.2451 22.4709 21.9627C22.3992 21.4702 22.718 21.5792 23.0003 21.5399C23.4863 21.4723 23.4326 21.773 23.408 22.0943C23.5416 22.5876 23.1659 22.4463 22.8942 22.4901Z" fill="white"/>
<path d="M24.7389 22.4767C24.2456 22.6103 24.387 22.2349 24.3431 21.9628C24.2632 21.4711 24.5881 21.5809 24.87 21.5395C25.363 21.4678 25.254 21.7866 25.2933 22.0694C25.3609 22.5549 25.0602 22.5013 24.7389 22.4767Z" fill="white"/>
<path d="M26.6415 22.4935C26.1625 22.557 26.2465 22.2628 26.21 21.9698C26.151 21.4973 26.4235 21.5174 26.7513 21.5572C27.2352 21.4256 27.1217 21.7788 27.1631 22.062C27.2335 22.5406 26.9336 22.455 26.6415 22.4935Z" fill="white"/>
</g>
<circle cx="29.5" cy="29.5" r="29.5" fill="#1E68D7"/>
<g clip-path="url(#clip1_2001_133)">
<path d="M22.4681 39.7434C22.4145 39.2795 22.6792 39.3328 22.9852 39.3029C23.4331 39.2594 23.4782 39.4774 23.3966 39.8016C23.5314 40.3011 23.2057 40.2212 22.909 40.2589C22.4464 40.3179 22.5034 40.0482 22.4681 39.7434Z" fill="#F6F6F6"/>
<path d="M22.4681 37.8733C22.4157 37.4102 22.6791 37.4627 22.9856 37.4328C23.4339 37.3893 23.4782 37.6073 23.3966 37.9314C23.5314 38.4309 23.2061 38.3514 22.9094 38.3887C22.4472 38.4473 22.5025 38.1785 22.4681 37.8733Z" fill="#F6F6F6"/>
<path d="M23.4232 41.6971C23.4933 42.1757 23.1938 42.0905 22.9012 42.129C22.4222 42.1921 22.5066 41.8979 22.4697 41.6049C22.4107 41.1325 22.6836 41.1529 23.011 41.1923C23.4949 41.0612 23.3818 41.414 23.4232 41.6971Z" fill="#F6F6F6"/>
<path d="M22.9836 16.874C19.6212 16.8621 16.8775 19.5793 16.8701 22.9283C16.8632 26.2634 19.5646 29.0056 22.8803 29.0281C26.2468 29.0514 29.0069 26.3445 29.0241 23.0025C29.0417 19.6371 26.3296 16.8855 22.9836 16.874ZM26.4365 26.7199C24.7279 28.3098 22.2034 28.5442 20.2342 27.3153C18.2756 26.0929 17.3692 23.7417 18.0084 21.5429C18.6673 19.2761 20.6951 17.7767 23.0581 17.8087C25.3208 17.8394 27.3187 19.4219 27.919 21.6461C28.0014 21.951 27.9903 22.1784 27.7457 22.4292C26.8496 23.3487 25.9702 24.2859 25.1114 25.2398C24.8639 25.5143 24.7025 25.5426 24.4927 25.2427C24.4599 25.1955 24.4116 25.1591 24.3702 25.1177C23.8031 24.5571 23.3261 23.7532 22.6451 23.5007C21.8736 23.2151 20.918 23.4499 20.0449 23.4081C19.5753 23.3856 19.6966 23.6737 19.6708 23.9257C19.6392 24.2338 19.7093 24.3604 20.0662 24.3658C20.8344 24.3764 21.6855 24.1117 22.3509 24.4817C22.9885 24.8366 23.4478 25.5131 23.9846 26.0491C24.8287 26.8924 24.8291 26.8936 25.6609 26.0093C26.4152 25.2078 27.1675 24.4039 27.9206 23.6011C27.8748 24.8796 27.3261 25.8917 26.4365 26.7199ZM26.6414 22.4935C26.9336 22.455 27.2335 22.5407 27.163 22.0621C27.1216 21.7789 27.2351 21.4257 26.7512 21.5572C26.4234 21.5175 26.1509 21.4974 26.2099 21.9699C26.2464 22.2628 26.1624 22.5571 26.6414 22.4935ZM24.7389 22.4767C25.0602 22.5013 25.3609 22.555 25.2933 22.0694C25.254 21.7867 25.363 21.4679 24.8701 21.5396C24.5882 21.581 24.2632 21.4712 24.3431 21.9629C24.387 22.235 24.2456 22.6103 24.7389 22.4767ZM22.8942 22.4903C23.1659 22.4464 23.5417 22.5878 23.4081 22.0944C23.4327 21.7732 23.4863 21.4724 23.0004 21.54C22.7181 21.5794 22.3993 21.4704 22.471 21.9629C22.512 22.2452 22.4021 22.5698 22.8942 22.4903ZM21.0459 22.4948C21.3524 22.4604 21.6593 22.5169 21.5335 22.0555C21.6007 21.7068 21.5486 21.4982 21.1086 21.5363C20.7914 21.5638 20.5529 21.5347 20.5972 21.9846C20.6279 22.301 20.5968 22.5448 21.0459 22.4948ZM19.663 22.0469C19.7392 21.6884 19.6585 21.5068 19.2323 21.5355C18.9029 21.558 18.6915 21.5548 18.7263 21.9908C18.7521 22.3194 18.7468 22.5366 19.1823 22.4956C19.5007 22.4653 19.7855 22.4968 19.663 22.0469ZM22.9836 16.874C19.6212 16.8621 16.8775 19.5793 16.8701 22.9283C16.8632 26.2634 19.5646 29.0056 22.8803 29.0281C26.2468 29.0514 29.0069 26.3445 29.0241 23.0025C29.0417 19.6371 26.3296 16.8855 22.9836 16.874ZM26.4365 26.7199C24.7279 28.3098 22.2034 28.5442 20.2342 27.3153C18.2756 26.0929 17.3692 23.7417 18.0084 21.5429C18.6673 19.2761 20.6951 17.7767 23.0581 17.8087C25.3208 17.8394 27.3187 19.4219 27.919 21.6461C28.0014 21.951 27.9903 22.1784 27.7457 22.4292C26.8496 23.3487 25.9702 24.2859 25.1114 25.2398C24.8639 25.5143 24.7025 25.5426 24.4927 25.2427C24.4599 25.1955 24.4116 25.1591 24.3702 25.1177C23.8031 24.5571 23.3261 23.7532 22.6451 23.5007C21.8736 23.2151 20.918 23.4499 20.0449 23.4081C19.5753 23.3856 19.6966 23.6737 19.6708 23.9257C19.6392 24.2338 19.7093 24.3604 20.0662 24.3658C20.8344 24.3764 21.6855 24.1117 22.3509 24.4817C22.9885 24.8366 23.4478 25.5131 23.9846 26.0491C24.8287 26.8924 24.8291 26.8936 25.6609 26.0093C26.4152 25.2078 27.1675 24.4039 27.9206 23.6011C27.8748 24.8796 27.3261 25.8917 26.4365 26.7199ZM26.6414 22.4935C26.9336 22.455 27.2335 22.5407 27.163 22.0621C27.1216 21.7789 27.2351 21.4257 26.7512 21.5572C26.4234 21.5175 26.1509 21.4974 26.2099 21.9699C26.2464 22.2628 26.1624 22.5571 26.6414 22.4935ZM24.7389 22.4767C25.0602 22.5013 25.3609 22.555 25.2933 22.0694C25.254 21.7867 25.363 21.4679 24.8701 21.5396C24.5882 21.581 24.2632 21.4712 24.3431 21.9629C24.387 22.235 24.2456 22.6103 24.7389 22.4767ZM22.8942 22.4903C23.1659 22.4464 23.5417 22.5878 23.4081 22.0944C23.4327 21.7732 23.4863 21.4724 23.0004 21.54C22.7181 21.5794 22.3993 21.4704 22.471 21.9629C22.512 22.2452 22.4021 22.5698 22.8942 22.4903ZM21.0459 22.4948C21.3524 22.4604 21.6593 22.5169 21.5335 22.0555C21.6007 21.7068 21.5486 21.4982 21.1086 21.5363C20.7914 21.5638 20.5529 21.5347 20.5972 21.9846C20.6279 22.301 20.5968 22.5448 21.0459 22.4948ZM19.663 22.0469C19.7392 21.6884 19.6585 21.5068 19.2323 21.5355C18.9029 21.558 18.6915 21.5548 18.7263 21.9908C18.7521 22.3194 18.7468 22.5366 19.1823 22.4956C19.5007 22.4653 19.7855 22.4968 19.663 22.0469ZM43.5161 22.4837C43.1314 22.5538 43.0232 22.3923 43.0412 22.0133C43.0723 21.3523 43.0211 20.6877 43.0596 20.0276C43.0855 19.5895 42.8154 19.6846 42.579 19.6793C42.3315 19.6735 42.0812 19.6088 42.1045 20.0341C42.1426 20.7139 42.0844 21.3991 42.1258 22.078C42.1516 22.5013 41.9398 22.4845 41.6419 22.4915C41.3235 22.4993 41.1199 22.4722 41.1687 22.0666C41.1879 21.9051 41.3026 21.6687 41.0547 21.5556C40.6348 21.3642 40.2205 21.6146 40.2561 22.0817C40.2893 22.512 40.0591 22.4788 39.7685 22.4915C39.4424 22.5054 39.276 22.4612 39.2994 22.0637C39.3379 21.4036 39.2781 20.7377 39.3211 20.0784C39.3494 19.6448 39.1187 19.6854 38.8314 19.6707C38.5008 19.6535 38.3402 19.7067 38.3647 20.1009C38.4028 20.7217 38.3516 21.3478 38.3832 21.9695C38.4028 22.355 38.3275 22.494 37.8939 22.5038C37.4084 22.5144 37.4174 22.2801 37.4362 21.9424C37.4535 21.6318 37.4252 21.3187 37.444 21.0081C37.4612 20.7266 37.4031 20.6078 37.0736 20.5992C36.6434 20.5881 36.4266 20.6721 36.4971 21.1577C36.5385 21.4437 36.4742 21.7449 36.5119 22.0321C36.5668 22.446 36.3746 22.5034 36.0238 22.4944C35.7632 22.4874 35.6477 22.3341 35.5072 22.176C34.4205 20.9532 33.3109 19.7502 32.257 18.4995C31.896 18.0709 31.7084 18.1254 31.3961 18.5114C31.0548 18.9331 30.6553 19.3076 30.2353 19.7514C30.1124 19.5141 30.0263 19.3408 29.9342 19.1712C28.1927 15.961 24.4767 14.3412 20.9463 15.2517C17.4811 16.1454 15.0086 19.3371 15 22.9291C14.9918 26.4265 17.2541 29.4825 20.6337 30.5479C20.8 30.6 21.0987 30.5614 21.0664 30.8298C20.9578 31.7321 21.3839 32.6906 20.7713 33.5429C20.6103 33.7675 20.607 34.0526 20.6074 34.3305C20.6115 36.7264 20.6062 39.1219 20.6111 41.5174C20.6144 42.936 21.6072 43.9833 22.9377 43.9883C24.2718 43.9936 25.279 42.9495 25.2831 41.537C25.2892 39.1415 25.2827 36.7456 25.2872 34.3501C25.2876 34.0727 25.3085 33.7609 25.1274 33.5658C24.7602 33.1708 24.8197 32.7123 24.8176 32.2521C24.816 31.9018 24.8451 31.5482 24.8098 31.2015C24.7701 30.8081 24.8971 30.6467 25.2954 30.5246C29.0499 29.3739 31.4133 25.6709 30.7598 21.7928C30.6008 20.8471 30.9171 20.3242 31.5059 19.7506C31.7706 19.4928 31.8817 19.485 32.1214 19.7616C33.0896 20.8807 34.0894 21.9723 35.0601 23.0889C35.2703 23.3307 35.4822 23.4274 35.8034 23.4258C38.3746 23.4126 40.9453 23.4102 43.5161 23.4274C43.8959 23.4303 44 23.3327 44 22.9508C44 22.5689 43.8955 22.4149 43.5161 22.4837ZM24.3423 41.6862C24.3366 42.4615 23.7056 43.0474 22.9569 43.0532C22.187 43.0589 21.5613 42.4561 21.5495 41.6481C21.5318 40.4425 21.5449 39.237 21.5449 38.0315C21.5449 36.8259 21.5597 35.62 21.538 34.4149C21.5286 33.8826 21.7424 33.6728 22.2661 33.6986C22.7705 33.7228 23.277 33.7056 23.7826 33.7035C24.1698 33.7019 24.3505 33.8953 24.3501 34.278C24.3484 36.7473 24.3595 39.2169 24.3423 41.6862ZM22.0121 31.8473C22.0121 30.8974 22.0121 30.8974 22.941 30.8983C23.8822 30.8987 23.8822 30.8987 23.8822 31.8346C23.8822 32.7688 23.8822 32.7689 22.9537 32.7689C22.0121 32.7689 22.0121 32.7689 22.0121 31.8473ZM22.9278 29.9632C19.0688 29.957 15.9289 26.7994 15.9351 22.9308C15.9412 19.0708 19.0975 15.9324 22.9672 15.9385C26.827 15.9447 29.9657 19.1011 29.9596 22.9705C29.953 26.8297 26.7959 29.9697 22.9278 29.9632ZM22.9836 16.874C19.6212 16.8621 16.8775 19.5793 16.8701 22.9283C16.8632 26.2634 19.5646 29.0056 22.8803 29.0281C26.2468 29.0514 29.0069 26.3445 29.0241 23.0025C29.0417 19.6371 26.3296 16.8855 22.9836 16.874ZM27.7457 22.4292C26.8496 23.3487 25.9702 24.2859 25.1114 25.2398C24.8639 25.5143 24.7025 25.5426 24.4927 25.2427C24.4599 25.1955 24.4116 25.1591 24.3702 25.1177C23.8031 24.5571 23.3261 23.7532 22.6451 23.5007C21.8736 23.2151 20.918 23.4499 20.0449 23.4081C19.5753 23.3856 19.6966 23.6737 19.6708 23.9257C19.6392 24.2338 19.7093 24.3604 20.0662 24.3658C20.8344 24.3764 21.6855 24.1117 22.3509 24.4817C22.9885 24.8366 23.4478 25.5131 23.9846 26.0491C24.8287 26.8924 24.8291 26.8936 25.6609 26.0093C26.4152 25.2078 27.1675 24.4039 27.9206 23.6011C27.8748 24.8796 27.3261 25.8917 26.4365 26.7199C24.7279 28.3098 22.2034 28.5442 20.2342 27.3153C18.2756 26.0929 17.3692 23.7417 18.0084 21.5429C18.6673 19.2761 20.6951 17.7767 23.0581 17.8087C25.3208 17.8394 27.3187 19.4219 27.919 21.6461C28.0014 21.951 27.9903 22.1784 27.7457 22.4292ZM26.2099 21.9699C26.2464 22.2628 26.1624 22.5571 26.6414 22.4935C26.9336 22.455 27.2335 22.5407 27.163 22.0621C27.1216 21.7789 27.2351 21.4257 26.7512 21.5572C26.4234 21.5175 26.1509 21.4974 26.2099 21.9699ZM24.8701 21.5396C24.5882 21.581 24.2632 21.4712 24.3431 21.9629C24.387 22.235 24.2456 22.6103 24.7389 22.4767C25.0602 22.5013 25.3609 22.555 25.2933 22.0694C25.254 21.7867 25.363 21.4679 24.8701 21.5396ZM23.0004 21.54C22.7181 21.5794 22.3993 21.4704 22.471 21.9629C22.512 22.2452 22.4021 22.5698 22.8942 22.4903C23.1659 22.4464 23.5417 22.5878 23.4081 22.0944C23.4327 21.7732 23.4863 21.4724 23.0004 21.54ZM21.1086 21.5363C20.7914 21.5638 20.5529 21.5347 20.5972 21.9846C20.6279 22.301 20.5968 22.5448 21.0459 22.4948C21.3524 22.4604 21.6593 22.5169 21.5335 22.0555C21.6007 21.7068 21.5486 21.4982 21.1086 21.5363ZM19.2323 21.5355C18.9029 21.558 18.6915 21.5548 18.7263 21.9908C18.7521 22.3194 18.7468 22.5366 19.1823 22.4956C19.5007 22.4653 19.7855 22.4968 19.663 22.0469C19.7392 21.6884 19.6585 21.5068 19.2323 21.5355Z" fill="#F6F6F6"/>
<path d="M43.9939 43.5206C43.9615 42.8212 43.9849 42.1188 43.9849 41.4177C43.9849 36.841 43.9783 32.2643 43.9955 27.6877C43.9972 27.2562 43.9038 27.1209 43.4596 27.1472C42.7413 27.1894 42.0189 27.1586 41.2986 27.1586C40.2447 27.1586 40.2447 27.1586 40.2447 28.2105V42.5245C40.2447 42.8044 40.3393 43.0904 39.837 43.074C39.4063 43.06 39.2961 42.9683 39.2986 42.5286C39.3178 38.517 39.3023 34.5049 39.3207 30.4933C39.3223 30.0618 39.2293 29.9319 38.7848 29.9516C37.8911 29.9914 36.9929 29.9897 36.0984 29.9524C35.6625 29.934 35.5563 30.05 35.5584 30.4892C35.5776 34.5008 35.5662 38.5129 35.576 42.5249C35.5768 42.8797 35.5686 43.076 35.104 43.0748C34.6467 43.0736 34.6266 42.89 34.6279 42.5286C34.6393 39.1205 34.6287 35.7121 34.6434 32.3041C34.6451 31.9271 34.5545 31.8111 34.1681 31.8238C33.2536 31.8537 32.3365 31.8599 31.4228 31.8222C30.9852 31.8042 30.8807 31.9222 30.8836 32.3602C30.904 35.7486 30.8905 39.1373 30.9012 42.5261C30.9024 42.883 30.8901 43.0752 30.4279 43.0748C29.9682 43.074 29.9514 42.8871 29.953 42.5273C29.9653 39.7426 29.9522 36.9574 29.969 34.1726C29.9711 33.7924 29.8748 33.6821 29.4912 33.6944C28.5771 33.7235 27.6601 33.7305 26.7463 33.692C26.305 33.6735 26.2055 33.7973 26.2087 34.2316C26.2296 37.3086 26.23 40.3859 26.2083 43.4628C26.205 43.9017 26.3132 44.0033 26.748 44C29.5326 43.9779 32.3177 43.989 35.1023 43.989C37.9067 43.989 40.711 43.9812 43.5153 43.998C43.8951 44 44.0119 43.905 43.9939 43.5206ZM28.5693 43.0654C27.1548 43.0551 27.1548 43.074 27.1548 41.6623V38.8001C27.1548 37.554 27.1643 36.3079 27.1483 35.0618C27.1442 34.7508 27.2024 34.6332 27.5515 34.6287C29.0249 34.609 29.0249 34.5955 29.0249 36.0883C29.0249 38.2498 29.0172 40.4109 29.0323 42.5724C29.0348 42.9289 28.9758 43.0686 28.5693 43.0654ZM33.2601 43.0637C31.8297 43.0633 31.8297 43.0777 31.8297 41.6779C31.8297 38.8739 31.8391 36.0698 31.8194 33.2662C31.8166 32.8556 31.9182 32.7515 32.3279 32.7577C33.6994 32.777 33.6998 32.7589 33.6998 34.1443V37.9417C33.6998 39.4992 33.6871 41.0575 33.7092 42.6146C33.7141 42.9773 33.6203 43.0641 33.2601 43.0637ZM37.8489 43.0658C36.5053 43.0391 36.5049 43.0605 36.5049 41.7086V36.9767C36.5049 35.1073 36.5156 33.2375 36.4955 31.3686C36.4918 30.9896 36.5885 30.8859 36.972 30.8883C38.3746 30.8969 38.3746 30.8814 38.3746 32.302C38.3746 35.7101 38.366 39.1177 38.3857 42.5253C38.3885 42.9592 38.2894 43.0748 37.8489 43.0658ZM42.5819 43.0637C41.1797 43.0555 41.1797 43.0707 41.1797 41.6492C41.1797 37.3065 41.1871 32.9638 41.1687 28.6211C41.167 28.1855 41.2678 28.0728 41.7067 28.0814C43.0494 28.1081 43.0498 28.0872 43.0498 29.4398V35.6326C43.0498 37.9498 43.0408 40.2675 43.0589 42.5847C43.0621 42.965 42.9638 43.0662 42.5819 43.0637Z" fill="#F6F6F6"/>
<path d="M43.9939 43.5206C43.9615 42.8212 43.9849 42.1188 43.9849 41.4177C43.9849 36.841 43.9783 32.2643 43.9955 27.6877C43.9972 27.2562 43.9038 27.1209 43.4596 27.1472C42.7413 27.1894 42.0189 27.1586 41.2986 27.1586C40.2447 27.1586 40.2447 27.1586 40.2447 28.2105V42.5245C40.2447 42.8044 40.3393 43.0904 39.837 43.074C39.4063 43.06 39.2961 42.9683 39.2986 42.5286C39.3178 38.517 39.3023 34.5049 39.3207 30.4933C39.3223 30.0618 39.2293 29.9319 38.7848 29.9516C37.8911 29.9914 36.9929 29.9897 36.0984 29.9524C35.6625 29.934 35.5563 30.05 35.5584 30.4892C35.5776 34.5008 35.5662 38.5129 35.576 42.5249C35.5768 42.8797 35.5686 43.076 35.104 43.0748C34.6467 43.0736 34.6266 42.89 34.6279 42.5286C34.6393 39.1205 34.6287 35.7121 34.6434 32.3041C34.6451 31.9271 34.5545 31.8111 34.1681 31.8238C33.2536 31.8537 32.3365 31.8599 31.4228 31.8222C30.9852 31.8042 30.8807 31.9222 30.8836 32.3602C30.904 35.7486 30.8905 39.1373 30.9012 42.5261C30.9024 42.883 30.8901 43.0752 30.4279 43.0748C29.9682 43.074 29.9514 42.8871 29.953 42.5273C29.9653 39.7426 29.9522 36.9574 29.969 34.1726C29.9711 33.7924 29.8748 33.6821 29.4912 33.6944C28.5771 33.7235 27.6601 33.7305 26.7463 33.692C26.305 33.6735 26.2055 33.7973 26.2087 34.2316C26.2296 37.3086 26.23 40.3859 26.2083 43.4628C26.205 43.9017 26.3132 44.0033 26.748 44C29.5326 43.9779 32.3177 43.989 35.1023 43.989C37.9067 43.989 40.711 43.9812 43.5153 43.998C43.8951 44 44.0119 43.905 43.9939 43.5206ZM28.5693 43.0654C27.1548 43.0551 27.1548 43.074 27.1548 41.6623V38.8001C27.1548 37.554 27.1643 36.3079 27.1483 35.0618C27.1442 34.7508 27.2024 34.6332 27.5515 34.6287C29.0249 34.609 29.0249 34.5955 29.0249 36.0883C29.0249 38.2498 29.0172 40.4109 29.0323 42.5724C29.0348 42.9289 28.9758 43.0686 28.5693 43.0654ZM33.2601 43.0637C31.8297 43.0633 31.8297 43.0777 31.8297 41.6779C31.8297 38.8739 31.8391 36.0698 31.8194 33.2662C31.8166 32.8556 31.9182 32.7515 32.3279 32.7577C33.6994 32.777 33.6998 32.7589 33.6998 34.1443V37.9417C33.6998 39.4992 33.6871 41.0575 33.7092 42.6146C33.7141 42.9773 33.6203 43.0641 33.2601 43.0637ZM37.8489 43.0658C36.5053 43.0391 36.5049 43.0605 36.5049 41.7086V36.9767C36.5049 35.1073 36.5156 33.2375 36.4955 31.3686C36.4918 30.9896 36.5885 30.8859 36.972 30.8883C38.3746 30.8969 38.3746 30.8814 38.3746 32.302C38.3746 35.7101 38.366 39.1177 38.3857 42.5253C38.3885 42.9592 38.2894 43.0748 37.8489 43.0658ZM42.5819 43.0637C41.1797 43.0555 41.1797 43.0707 41.1797 41.6492C41.1797 37.3065 41.1871 32.9638 41.1687 28.6211C41.167 28.1855 41.2678 28.0728 41.7067 28.0814C43.0494 28.1081 43.0498 28.0872 43.0498 29.4398V35.6326C43.0498 37.9498 43.0408 40.2675 43.0589 42.5847C43.0621 42.965 42.9638 43.0662 42.5819 43.0637Z" fill="white"/>
<path d="M22.4681 39.7434C22.4145 39.2795 22.6792 39.3328 22.9852 39.3029C23.4331 39.2594 23.4782 39.4774 23.3966 39.8016C23.5314 40.3011 23.2057 40.2212 22.909 40.2589C22.4464 40.3179 22.5034 40.0482 22.4681 39.7434Z" fill="white"/>
<path d="M22.4681 37.8733C22.4157 37.4102 22.6791 37.4627 22.9856 37.4328C23.4339 37.3893 23.4782 37.6073 23.3966 37.9314C23.5314 38.4309 23.2061 38.3514 22.9094 38.3887C22.4472 38.4473 22.5025 38.1785 22.4681 37.8733Z" fill="white"/>
<path d="M23.4232 41.6971C23.4933 42.1757 23.1938 42.0905 22.9012 42.129C22.4222 42.1921 22.5066 41.8979 22.4697 41.6049C22.4107 41.1325 22.6836 41.1529 23.011 41.1923C23.4949 41.0612 23.3818 41.414 23.4232 41.6971Z" fill="white"/>
<path d="M22.9836 16.874C19.6212 16.8621 16.8775 19.5793 16.8701 22.9283C16.8632 26.2634 19.5646 29.0056 22.8803 29.0281C26.2468 29.0514 29.0069 26.3445 29.0241 23.0025C29.0417 19.6371 26.3296 16.8855 22.9836 16.874ZM26.4365 26.7199C24.7279 28.3098 22.2034 28.5442 20.2342 27.3153C18.2756 26.0929 17.3692 23.7417 18.0084 21.5429C18.6673 19.2761 20.6951 17.7767 23.0581 17.8087C25.3208 17.8394 27.3187 19.4219 27.919 21.6461C28.0014 21.951 27.9903 22.1784 27.7457 22.4292C26.8496 23.3487 25.9702 24.2859 25.1114 25.2398C24.8639 25.5143 24.7025 25.5426 24.4927 25.2427C24.4599 25.1955 24.4116 25.1591 24.3702 25.1177C23.8031 24.5571 23.3261 23.7532 22.6451 23.5007C21.8736 23.2151 20.918 23.4499 20.0449 23.4081C19.5753 23.3856 19.6966 23.6737 19.6708 23.9257C19.6392 24.2338 19.7093 24.3604 20.0662 24.3658C20.8344 24.3764 21.6855 24.1117 22.3509 24.4817C22.9885 24.8366 23.4478 25.5131 23.9846 26.0491C24.8287 26.8924 24.8291 26.8936 25.6609 26.0093C26.4152 25.2078 27.1675 24.4039 27.9206 23.6011C27.8748 24.8796 27.3261 25.8917 26.4365 26.7199ZM26.6414 22.4935C26.9336 22.455 27.2335 22.5407 27.163 22.0621C27.1216 21.7789 27.2351 21.4257 26.7512 21.5572C26.4234 21.5175 26.1509 21.4974 26.2099 21.9699C26.2464 22.2628 26.1624 22.5571 26.6414 22.4935ZM24.7389 22.4767C25.0602 22.5013 25.3609 22.555 25.2933 22.0694C25.254 21.7867 25.363 21.4679 24.8701 21.5396C24.5882 21.581 24.2632 21.4712 24.3431 21.9629C24.387 22.235 24.2456 22.6103 24.7389 22.4767ZM22.8942 22.4903C23.1659 22.4464 23.5417 22.5878 23.4081 22.0944C23.4327 21.7732 23.4863 21.4724 23.0004 21.54C22.7181 21.5794 22.3993 21.4704 22.471 21.9629C22.512 22.2452 22.4021 22.5698 22.8942 22.4903ZM21.0459 22.4948C21.3524 22.4604 21.6593 22.5169 21.5335 22.0555C21.6007 21.7068 21.5486 21.4982 21.1086 21.5363C20.7914 21.5638 20.5529 21.5347 20.5972 21.9846C20.6279 22.301 20.5968 22.5448 21.0459 22.4948ZM19.663 22.0469C19.7392 21.6884 19.6585 21.5068 19.2323 21.5355C18.9029 21.558 18.6915 21.5548 18.7263 21.9908C18.7521 22.3194 18.7468 22.5366 19.1823 22.4956C19.5007 22.4653 19.7855 22.4968 19.663 22.0469ZM22.9836 16.874C19.6212 16.8621 16.8775 19.5793 16.8701 22.9283C16.8632 26.2634 19.5646 29.0056 22.8803 29.0281C26.2468 29.0514 29.0069 26.3445 29.0241 23.0025C29.0417 19.6371 26.3296 16.8855 22.9836 16.874ZM26.4365 26.7199C24.7279 28.3098 22.2034 28.5442 20.2342 27.3153C18.2756 26.0929 17.3692 23.7417 18.0084 21.5429C18.6673 19.2761 20.6951 17.7767 23.0581 17.8087C25.3208 17.8394 27.3187 19.4219 27.919 21.6461C28.0014 21.951 27.9903 22.1784 27.7457 22.4292C26.8496 23.3487 25.9702 24.2859 25.1114 25.2398C24.8639 25.5143 24.7025 25.5426 24.4927 25.2427C24.4599 25.1955 24.4116 25.1591 24.3702 25.1177C23.8031 24.5571 23.3261 23.7532 22.6451 23.5007C21.8736 23.2151 20.918 23.4499 20.0449 23.4081C19.5753 23.3856 19.6966 23.6737 19.6708 23.9257C19.6392 24.2338 19.7093 24.3604 20.0662 24.3658C20.8344 24.3764 21.6855 24.1117 22.3509 24.4817C22.9885 24.8366 23.4478 25.5131 23.9846 26.0491C24.8287 26.8924 24.8291 26.8936 25.6609 26.0093C26.4152 25.2078 27.1675 24.4039 27.9206 23.6011C27.8748 24.8796 27.3261 25.8917 26.4365 26.7199ZM26.6414 22.4935C26.9336 22.455 27.2335 22.5407 27.163 22.0621C27.1216 21.7789 27.2351 21.4257 26.7512 21.5572C26.4234 21.5175 26.1509 21.4974 26.2099 21.9699C26.2464 22.2628 26.1624 22.5571 26.6414 22.4935ZM24.7389 22.4767C25.0602 22.5013 25.3609 22.555 25.2933 22.0694C25.254 21.7867 25.363 21.4679 24.8701 21.5396C24.5882 21.581 24.2632 21.4712 24.3431 21.9629C24.387 22.235 24.2456 22.6103 24.7389 22.4767ZM22.8942 22.4903C23.1659 22.4464 23.5417 22.5878 23.4081 22.0944C23.4327 21.7732 23.4863 21.4724 23.0004 21.54C22.7181 21.5794 22.3993 21.4704 22.471 21.9629C22.512 22.2452 22.4021 22.5698 22.8942 22.4903ZM21.0459 22.4948C21.3524 22.4604 21.6593 22.5169 21.5335 22.0555C21.6007 21.7068 21.5486 21.4982 21.1086 21.5363C20.7914 21.5638 20.5529 21.5347 20.5972 21.9846C20.6279 22.301 20.5968 22.5448 21.0459 22.4948ZM19.663 22.0469C19.7392 21.6884 19.6585 21.5068 19.2323 21.5355C18.9029 21.558 18.6915 21.5548 18.7263 21.9908C18.7521 22.3194 18.7468 22.5366 19.1823 22.4956C19.5007 22.4653 19.7855 22.4968 19.663 22.0469ZM43.5161 22.4837C43.1314 22.5538 43.0232 22.3923 43.0412 22.0133C43.0723 21.3523 43.0211 20.6877 43.0596 20.0276C43.0855 19.5895 42.8154 19.6846 42.579 19.6793C42.3315 19.6735 42.0812 19.6088 42.1045 20.0341C42.1426 20.7139 42.0844 21.3991 42.1258 22.078C42.1516 22.5013 41.9398 22.4845 41.6419 22.4915C41.3235 22.4993 41.1199 22.4722 41.1687 22.0666C41.1879 21.9051 41.3026 21.6687 41.0547 21.5556C40.6348 21.3642 40.2205 21.6146 40.2561 22.0817C40.2893 22.512 40.0591 22.4788 39.7685 22.4915C39.4424 22.5054 39.276 22.4612 39.2994 22.0637C39.3379 21.4036 39.2781 20.7377 39.3211 20.0784C39.3494 19.6448 39.1187 19.6854 38.8314 19.6707C38.5008 19.6535 38.3402 19.7067 38.3647 20.1009C38.4028 20.7217 38.3516 21.3478 38.3832 21.9695C38.4028 22.355 38.3275 22.494 37.8939 22.5038C37.4084 22.5144 37.4174 22.2801 37.4362 21.9424C37.4535 21.6318 37.4252 21.3187 37.444 21.0081C37.4612 20.7266 37.4031 20.6078 37.0736 20.5992C36.6434 20.5881 36.4266 20.6721 36.4971 21.1577C36.5385 21.4437 36.4742 21.7449 36.5119 22.0321C36.5668 22.446 36.3746 22.5034 36.0238 22.4944C35.7632 22.4874 35.6477 22.3341 35.5072 22.176C34.4205 20.9532 33.3109 19.7502 32.257 18.4995C31.896 18.0709 31.7084 18.1254 31.3961 18.5114C31.0548 18.9331 30.6553 19.3076 30.2353 19.7514C30.1124 19.5141 30.0263 19.3408 29.9342 19.1712C28.1927 15.961 24.4767 14.3412 20.9463 15.2517C17.4811 16.1454 15.0086 19.3371 15 22.9291C14.9918 26.4265 17.2541 29.4825 20.6337 30.5479C20.8 30.6 21.0987 30.5614 21.0664 30.8298C20.9578 31.7321 21.3839 32.6906 20.7713 33.5429C20.6103 33.7675 20.607 34.0526 20.6074 34.3305C20.6115 36.7264 20.6062 39.1219 20.6111 41.5174C20.6144 42.936 21.6072 43.9833 22.9377 43.9883C24.2718 43.9936 25.279 42.9495 25.2831 41.537C25.2892 39.1415 25.2827 36.7456 25.2872 34.3501C25.2876 34.0727 25.3085 33.7609 25.1274 33.5658C24.7602 33.1708 24.8197 32.7123 24.8176 32.2521C24.816 31.9018 24.8451 31.5482 24.8098 31.2015C24.7701 30.8081 24.8971 30.6467 25.2954 30.5246C29.0499 29.3739 31.4133 25.6709 30.7598 21.7928C30.6008 20.8471 30.9171 20.3242 31.5059 19.7506C31.7706 19.4928 31.8817 19.485 32.1214 19.7616C33.0896 20.8807 34.0894 21.9723 35.0601 23.0889C35.2703 23.3307 35.4822 23.4274 35.8034 23.4258C38.3746 23.4126 40.9453 23.4102 43.5161 23.4274C43.8959 23.4303 44 23.3327 44 22.9508C44 22.5689 43.8955 22.4149 43.5161 22.4837ZM24.3423 41.6862C24.3366 42.4615 23.7056 43.0474 22.9569 43.0532C22.187 43.0589 21.5613 42.4561 21.5495 41.6481C21.5318 40.4425 21.5449 39.237 21.5449 38.0315C21.5449 36.8259 21.5597 35.62 21.538 34.4149C21.5286 33.8826 21.7424 33.6728 22.2661 33.6986C22.7705 33.7228 23.277 33.7056 23.7826 33.7035C24.1698 33.7019 24.3505 33.8953 24.3501 34.278C24.3484 36.7473 24.3595 39.2169 24.3423 41.6862ZM22.0121 31.8473C22.0121 30.8974 22.0121 30.8974 22.941 30.8983C23.8822 30.8987 23.8822 30.8987 23.8822 31.8346C23.8822 32.7688 23.8822 32.7689 22.9537 32.7689C22.0121 32.7689 22.0121 32.7689 22.0121 31.8473ZM22.9278 29.9632C19.0688 29.957 15.9289 26.7994 15.9351 22.9308C15.9412 19.0708 19.0975 15.9324 22.9672 15.9385C26.827 15.9447 29.9657 19.1011 29.9596 22.9705C29.953 26.8297 26.7959 29.9697 22.9278 29.9632ZM22.9836 16.874C19.6212 16.8621 16.8775 19.5793 16.8701 22.9283C16.8632 26.2634 19.5646 29.0056 22.8803 29.0281C26.2468 29.0514 29.0069 26.3445 29.0241 23.0025C29.0417 19.6371 26.3296 16.8855 22.9836 16.874ZM27.7457 22.4292C26.8496 23.3487 25.9702 24.2859 25.1114 25.2398C24.8639 25.5143 24.7025 25.5426 24.4927 25.2427C24.4599 25.1955 24.4116 25.1591 24.3702 25.1177C23.8031 24.5571 23.3261 23.7532 22.6451 23.5007C21.8736 23.2151 20.918 23.4499 20.0449 23.4081C19.5753 23.3856 19.6966 23.6737 19.6708 23.9257C19.6392 24.2338 19.7093 24.3604 20.0662 24.3658C20.8344 24.3764 21.6855 24.1117 22.3509 24.4817C22.9885 24.8366 23.4478 25.5131 23.9846 26.0491C24.8287 26.8924 24.8291 26.8936 25.6609 26.0093C26.4152 25.2078 27.1675 24.4039 27.9206 23.6011C27.8748 24.8796 27.3261 25.8917 26.4365 26.7199C24.7279 28.3098 22.2034 28.5442 20.2342 27.3153C18.2756 26.0929 17.3692 23.7417 18.0084 21.5429C18.6673 19.2761 20.6951 17.7767 23.0581 17.8087C25.3208 17.8394 27.3187 19.4219 27.919 21.6461C28.0014 21.951 27.9903 22.1784 27.7457 22.4292ZM26.2099 21.9699C26.2464 22.2628 26.1624 22.5571 26.6414 22.4935C26.9336 22.455 27.2335 22.5407 27.163 22.0621C27.1216 21.7789 27.2351 21.4257 26.7512 21.5572C26.4234 21.5175 26.1509 21.4974 26.2099 21.9699ZM24.8701 21.5396C24.5882 21.581 24.2632 21.4712 24.3431 21.9629C24.387 22.235 24.2456 22.6103 24.7389 22.4767C25.0602 22.5013 25.3609 22.555 25.2933 22.0694C25.254 21.7867 25.363 21.4679 24.8701 21.5396ZM23.0004 21.54C22.7181 21.5794 22.3993 21.4704 22.471 21.9629C22.512 22.2452 22.4021 22.5698 22.8942 22.4903C23.1659 22.4464 23.5417 22.5878 23.4081 22.0944C23.4327 21.7732 23.4863 21.4724 23.0004 21.54ZM21.1086 21.5363C20.7914 21.5638 20.5529 21.5347 20.5972 21.9846C20.6279 22.301 20.5968 22.5448 21.0459 22.4948C21.3524 22.4604 21.6593 22.5169 21.5335 22.0555C21.6007 21.7068 21.5486 21.4982 21.1086 21.5363ZM19.2323 21.5355C18.9029 21.558 18.6915 21.5548 18.7263 21.9908C18.7521 22.3194 18.7468 22.5366 19.1823 22.4956C19.5007 22.4653 19.7855 22.4968 19.663 22.0469C19.7392 21.6884 19.6585 21.5068 19.2323 21.5355Z" fill="white"/>
<path d="M19.1822 22.4955C18.7466 22.5365 18.752 22.3193 18.7262 21.9907C18.6913 21.5547 18.9028 21.558 19.2322 21.5354C19.6583 21.5067 19.7391 21.6883 19.6628 22.0468C19.7854 22.4967 19.5006 22.4652 19.1822 22.4955Z" fill="#F6F6F6"/>
<path d="M20.5971 21.9845C20.5528 21.5346 20.7913 21.5637 21.1085 21.5362C21.5485 21.4981 21.6006 21.7067 21.5334 22.0554C21.6592 22.5168 21.3523 22.4602 21.0458 22.4946C20.5967 22.5446 20.6278 22.3008 20.5971 21.9845Z" fill="#F6F6F6"/>
<path d="M22.4709 21.9627C22.3992 21.4702 22.718 21.5792 23.0003 21.5399C23.4863 21.4723 23.4326 21.773 23.408 22.0943C23.5416 22.5876 23.1659 22.4463 22.8942 22.4901C22.4021 22.5696 22.5119 22.2451 22.4709 21.9627Z" fill="#F6F6F6"/>
<path d="M24.3431 21.9628C24.2632 21.4711 24.5881 21.5809 24.87 21.5395C25.363 21.4678 25.254 21.7866 25.2933 22.0694C25.3609 22.5549 25.0602 22.5013 24.7389 22.4767C24.2456 22.6103 24.387 22.2349 24.3431 21.9628Z" fill="#F6F6F6"/>
<path d="M26.21 21.9698C26.151 21.4973 26.4235 21.5174 26.7513 21.5572C27.2352 21.4256 27.1217 21.7788 27.1631 22.062C27.2335 22.5406 26.9336 22.455 26.6415 22.4935C26.1625 22.557 26.2465 22.2628 26.21 21.9698Z" fill="#F6F6F6"/>
<path d="M22.9836 16.8738C19.6212 16.8619 16.8775 19.5791 16.8701 22.9281C16.8632 26.2632 19.5646 29.0054 22.8803 29.0279C26.2468 29.0513 29.0069 26.3443 29.0241 23.0023C29.0417 19.6369 26.3296 16.8853 22.9836 16.8738ZM26.4365 26.7197C24.7279 28.3096 22.2034 28.544 20.2342 27.3151C18.2756 26.0927 17.3692 23.7415 18.0084 21.5427C18.6673 19.2759 20.6951 17.7765 23.0582 17.8085C25.3208 17.8392 27.3187 19.4217 27.919 21.646C28.0014 21.9508 27.9903 22.1782 27.7457 22.429C26.8496 23.3485 25.9703 24.2857 25.1114 25.2396C24.8639 25.5142 24.7025 25.5424 24.4927 25.2425C24.4599 25.1954 24.4116 25.1589 24.3702 25.1175C23.8031 24.5569 23.3261 23.753 22.6451 23.5006C21.8736 23.215 20.918 23.4498 20.0449 23.408C19.5753 23.3854 19.6966 23.6735 19.6708 23.9255C19.6392 24.2336 19.7093 24.3603 20.0662 24.3656C20.8345 24.3762 21.6855 24.1115 22.3509 24.4815C22.9885 24.8364 23.4478 25.5129 23.9846 26.0489C24.8287 26.8922 24.8291 26.8934 25.6609 26.0092C26.4152 25.2077 27.1675 24.4037 27.9207 23.601C27.8748 24.8794 27.3261 25.8916 26.4365 26.7197Z" fill="#F6F6F6"/>
<path d="M22.4681 39.7434C22.4145 39.2795 22.6792 39.3328 22.9852 39.3029C23.4331 39.2594 23.4782 39.4774 23.3966 39.8016C23.5314 40.3011 23.2057 40.2212 22.909 40.2589C22.4464 40.3179 22.5034 40.0482 22.4681 39.7434Z" fill="#F6F6F6"/>
<path d="M22.4681 37.8733C22.4157 37.4102 22.6791 37.4627 22.9856 37.4328C23.4339 37.3893 23.4782 37.6073 23.3966 37.9314C23.5314 38.4309 23.2061 38.3514 22.9094 38.3887C22.4472 38.4473 22.5025 38.1785 22.4681 37.8733Z" fill="#F6F6F6"/>
<path d="M22.9012 42.129C22.4222 42.1921 22.5066 41.8979 22.4697 41.6049C22.4107 41.1325 22.6836 41.1529 23.011 41.1923C23.4949 41.0612 23.3818 41.414 23.4232 41.6971C23.4933 42.1757 23.1938 42.0905 22.9012 42.129Z" fill="#F6F6F6"/>
<path d="M19.1822 22.4955C18.7466 22.5365 18.752 22.3193 18.7262 21.9907C18.6913 21.5547 18.9028 21.558 19.2322 21.5354C19.6583 21.5067 19.7391 21.6883 19.6628 22.0468C19.7854 22.4967 19.5006 22.4652 19.1822 22.4955Z" fill="white"/>
<path d="M20.5971 21.9845C20.5528 21.5346 20.7913 21.5637 21.1085 21.5362C21.5485 21.4981 21.6006 21.7067 21.5334 22.0554C21.6592 22.5168 21.3523 22.4602 21.0458 22.4946C20.5967 22.5446 20.6278 22.3008 20.5971 21.9845Z" fill="white"/>
<path d="M22.4709 21.9627C22.3992 21.4702 22.718 21.5792 23.0003 21.5399C23.4863 21.4723 23.4326 21.773 23.408 22.0943C23.5416 22.5876 23.1659 22.4463 22.8942 22.4901C22.4021 22.5696 22.5119 22.2451 22.4709 21.9627Z" fill="white"/>
<path d="M24.3431 21.9628C24.2632 21.4711 24.5881 21.5809 24.87 21.5395C25.363 21.4678 25.254 21.7866 25.2933 22.0694C25.3609 22.5549 25.0602 22.5013 24.7389 22.4767C24.2456 22.6103 24.387 22.2349 24.3431 21.9628Z" fill="white"/>
<path d="M26.21 21.9698C26.151 21.4973 26.4235 21.5174 26.7513 21.5572C27.2352 21.4256 27.1217 21.7788 27.1631 22.062C27.2335 22.5406 26.9336 22.455 26.6415 22.4935C26.1625 22.557 26.2465 22.2628 26.21 21.9698Z" fill="white"/>
<path d="M22.9836 16.8738C19.6212 16.8619 16.8775 19.5791 16.8701 22.9281C16.8632 26.2632 19.5646 29.0054 22.8803 29.0279C26.2468 29.0513 29.0069 26.3443 29.0241 23.0023C29.0417 19.6369 26.3296 16.8853 22.9836 16.8738ZM26.4365 26.7197C24.7279 28.3096 22.2034 28.544 20.2342 27.3151C18.2756 26.0927 17.3692 23.7415 18.0084 21.5427C18.6673 19.2759 20.6951 17.7765 23.0582 17.8085C25.3208 17.8392 27.3187 19.4217 27.919 21.646C28.0014 21.9508 27.9903 22.1782 27.7457 22.429C26.8496 23.3485 25.9703 24.2857 25.1114 25.2396C24.8639 25.5142 24.7025 25.5424 24.4927 25.2425C24.4599 25.1954 24.4116 25.1589 24.3702 25.1175C23.8031 24.5569 23.3261 23.753 22.6451 23.5006C21.8736 23.215 20.918 23.4498 20.0449 23.408C19.5753 23.3854 19.6966 23.6735 19.6708 23.9255C19.6392 24.2336 19.7093 24.3603 20.0662 24.3656C20.8345 24.3762 21.6855 24.1115 22.3509 24.4815C22.9885 24.8364 23.4478 25.5129 23.9846 26.0489C24.8287 26.8922 24.8291 26.8934 25.6609 26.0092C26.4152 25.2077 27.1675 24.4037 27.9207 23.601C27.8748 24.8794 27.3261 25.8916 26.4365 26.7197Z" fill="white"/>
<path d="M23.3966 37.9314C23.5314 38.4309 23.2061 38.3514 22.9094 38.3887C22.4472 38.4473 22.5025 38.1785 22.4681 37.8733C22.4157 37.4102 22.6791 37.4627 22.9856 37.4328C23.4339 37.3893 23.4782 37.6073 23.3966 37.9314Z" fill="white"/>
<path d="M23.3966 39.8016C23.5314 40.3011 23.2057 40.2212 22.909 40.2589C22.4464 40.3179 22.5034 40.0482 22.4681 39.7434C22.4145 39.2795 22.6792 39.3328 22.9852 39.3029C23.4331 39.2594 23.4782 39.4774 23.3966 39.8016Z" fill="white"/>
<path d="M22.9012 42.129C22.4222 42.1921 22.5066 41.8979 22.4697 41.6049C22.4107 41.1325 22.6836 41.1529 23.011 41.1923C23.4949 41.0612 23.3818 41.414 23.4232 41.6971C23.4933 42.1757 23.1938 42.0905 22.9012 42.129Z" fill="white"/>
<path d="M19.6628 22.0468C19.7854 22.4967 19.5006 22.4652 19.1822 22.4955C18.7466 22.5365 18.752 22.3193 18.7262 21.9907C18.6913 21.5547 18.9028 21.558 19.2322 21.5354C19.6583 21.5067 19.7391 21.6883 19.6628 22.0468Z" fill="#F6F6F6"/>
<path d="M21.5334 22.0554C21.6592 22.5168 21.3523 22.4602 21.0458 22.4946C20.5967 22.5446 20.6278 22.3008 20.5971 21.9845C20.5528 21.5346 20.7913 21.5637 21.1085 21.5362C21.5485 21.4981 21.6006 21.7067 21.5334 22.0554Z" fill="#F6F6F6"/>
<path d="M23.408 22.0943C23.5416 22.5876 23.1659 22.4463 22.8942 22.4901C22.4021 22.5696 22.5119 22.2451 22.4709 21.9627C22.3992 21.4702 22.718 21.5792 23.0003 21.5399C23.4863 21.4723 23.4326 21.773 23.408 22.0943Z" fill="#F6F6F6"/>
<path d="M25.2933 22.0694C25.3609 22.5549 25.0602 22.5013 24.7389 22.4767C24.2456 22.6103 24.387 22.2349 24.3431 21.9628C24.2632 21.4711 24.5881 21.5809 24.87 21.5395C25.363 21.4678 25.254 21.7866 25.2933 22.0694Z" fill="#F6F6F6"/>
<path d="M26.6415 22.4935C26.1625 22.557 26.2465 22.2628 26.21 21.9698C26.151 21.4973 26.4235 21.5174 26.7513 21.5572C27.2352 21.4256 27.1217 21.7788 27.1631 22.062C27.2335 22.5406 26.9336 22.455 26.6415 22.4935Z" fill="#F6F6F6"/>
<path d="M19.1822 22.4955C18.7466 22.5365 18.752 22.3193 18.7262 21.9907C18.6913 21.5547 18.9028 21.558 19.2322 21.5354C19.6583 21.5067 19.7391 21.6883 19.6628 22.0468C19.7854 22.4967 19.5006 22.4652 19.1822 22.4955Z" fill="white"/>
<path d="M21.0458 22.4946C20.5967 22.5446 20.6278 22.3008 20.5971 21.9845C20.5528 21.5346 20.7913 21.5637 21.1085 21.5362C21.5485 21.4981 21.6006 21.7067 21.5334 22.0554C21.6592 22.5168 21.3523 22.4602 21.0458 22.4946Z" fill="white"/>
<path d="M22.8942 22.4901C22.4021 22.5696 22.5119 22.2451 22.4709 21.9627C22.3992 21.4702 22.718 21.5792 23.0003 21.5399C23.4863 21.4723 23.4326 21.773 23.408 22.0943C23.5416 22.5876 23.1659 22.4463 22.8942 22.4901Z" fill="white"/>
<path d="M24.7389 22.4767C24.2456 22.6103 24.387 22.2349 24.3431 21.9628C24.2632 21.4711 24.5881 21.5809 24.87 21.5395C25.363 21.4678 25.254 21.7866 25.2933 22.0694C25.3609 22.5549 25.0602 22.5013 24.7389 22.4767Z" fill="white"/>
<path d="M26.6415 22.4935C26.1625 22.557 26.2465 22.2628 26.21 21.9698C26.151 21.4973 26.4235 21.5174 26.7513 21.5572C27.2352 21.4256 27.1217 21.7788 27.1631 22.062C27.2335 22.5406 26.9336 22.455 26.6415 22.4935Z" fill="white"/>
</g>
<path d="M17.1055 66.3125V72H16.1328V66.3125H17.1055ZM18.8906 66.3125V67.0938H14.3633V66.3125H18.8906ZM20.2109 68.5781V72H19.2695V67.7734H20.168L20.2109 68.5781ZM21.5039 67.7461L21.4961 68.6211C21.4388 68.6107 21.3763 68.6029 21.3086 68.5977C21.2435 68.5924 21.1784 68.5898 21.1133 68.5898C20.9518 68.5898 20.8099 68.6133 20.6875 68.6602C20.5651 68.7044 20.4622 68.7695 20.3789 68.8555C20.2982 68.9388 20.2357 69.0404 20.1914 69.1602C20.1471 69.2799 20.1211 69.4141 20.1133 69.5625L19.8984 69.5781C19.8984 69.3125 19.9245 69.0664 19.9766 68.8398C20.0286 68.6133 20.1068 68.4141 20.2109 68.2422C20.3177 68.0703 20.4505 67.9362 20.6094 67.8398C20.7708 67.7435 20.957 67.6953 21.168 67.6953C21.2253 67.6953 21.2865 67.7005 21.3516 67.7109C21.4193 67.7214 21.4701 67.7331 21.5039 67.7461ZM23.8789 72.0781C23.5664 72.0781 23.2839 72.0273 23.0312 71.9258C22.7812 71.8216 22.5677 71.6771 22.3906 71.4922C22.2161 71.3073 22.082 71.0898 21.9883 70.8398C21.8945 70.5898 21.8477 70.3203 21.8477 70.0312V69.875C21.8477 69.5443 21.8958 69.2448 21.9922 68.9766C22.0885 68.7083 22.2227 68.4792 22.3945 68.2891C22.5664 68.0964 22.7695 67.9492 23.0039 67.8477C23.2383 67.7461 23.4922 67.6953 23.7656 67.6953C24.0677 67.6953 24.332 67.7461 24.5586 67.8477C24.7852 67.9492 24.9727 68.0924 25.1211 68.2773C25.2721 68.4596 25.3841 68.6771 25.457 68.9297C25.5326 69.1823 25.5703 69.4609 25.5703 69.7656V70.168H22.3047V69.4922H24.6406V69.418C24.6354 69.2487 24.6016 69.0898 24.5391 68.9414C24.4792 68.793 24.3867 68.6732 24.2617 68.582C24.1367 68.4909 23.9701 68.4453 23.7617 68.4453C23.6055 68.4453 23.4661 68.4792 23.3438 68.5469C23.224 68.612 23.1237 68.707 23.043 68.832C22.9622 68.957 22.8997 69.1081 22.8555 69.2852C22.8138 69.4596 22.793 69.6562 22.793 69.875V70.0312C22.793 70.2161 22.8177 70.388 22.8672 70.5469C22.9193 70.7031 22.9948 70.8398 23.0938 70.957C23.1927 71.0742 23.3125 71.1667 23.4531 71.2344C23.5938 71.2995 23.7539 71.332 23.9336 71.332C24.1602 71.332 24.362 71.2865 24.5391 71.1953C24.7161 71.1042 24.8698 70.9753 25 70.8086L25.4961 71.2891C25.4049 71.4219 25.2865 71.5495 25.1406 71.6719C24.9948 71.7917 24.8164 71.8893 24.6055 71.9648C24.3971 72.0404 24.1549 72.0781 23.8789 72.0781ZM27.2383 68.6758V72H26.2969V67.7734H27.1836L27.2383 68.6758ZM27.0703 69.7305L26.7656 69.7266C26.7682 69.4271 26.8099 69.1523 26.8906 68.9023C26.974 68.6523 27.0885 68.4375 27.2344 68.2578C27.3828 68.0781 27.5599 67.9401 27.7656 67.8438C27.9714 67.7448 28.2005 67.6953 28.4531 67.6953C28.6562 67.6953 28.8398 67.724 29.0039 67.7812C29.1706 67.8359 29.3125 67.9258 29.4297 68.0508C29.5495 68.1758 29.6406 68.3385 29.7031 68.5391C29.7656 68.737 29.7969 68.9805 29.7969 69.2695V72H28.8516V69.2656C28.8516 69.0625 28.8216 68.9023 28.7617 68.7852C28.7044 68.6654 28.6198 68.5807 28.5078 68.5312C28.3984 68.4792 28.2617 68.4531 28.0977 68.4531C27.9362 68.4531 27.7917 68.487 27.6641 68.5547C27.5365 68.6224 27.4284 68.7148 27.3398 68.832C27.2539 68.9492 27.1875 69.0846 27.1406 69.2383C27.0938 69.3919 27.0703 69.556 27.0703 69.7305ZM33.3359 71.125V66H34.2812V72H33.4258L33.3359 71.125ZM30.5859 69.9336V69.8516C30.5859 69.5312 30.6237 69.2396 30.6992 68.9766C30.7747 68.7109 30.8841 68.4831 31.0273 68.293C31.1706 68.1003 31.3451 67.9531 31.5508 67.8516C31.7565 67.7474 31.9883 67.6953 32.2461 67.6953C32.5013 67.6953 32.7253 67.7448 32.918 67.8438C33.1107 67.9427 33.2747 68.0846 33.4102 68.2695C33.5456 68.4518 33.6536 68.6706 33.7344 68.9258C33.8151 69.1784 33.8724 69.4596 33.9062 69.7695V70.0312C33.8724 70.3333 33.8151 70.6094 33.7344 70.8594C33.6536 71.1094 33.5456 71.3255 33.4102 71.5078C33.2747 71.6901 33.1094 71.8307 32.9141 71.9297C32.7214 72.0286 32.4961 72.0781 32.2383 72.0781C31.9831 72.0781 31.7526 72.0247 31.5469 71.918C31.3438 71.8112 31.1706 71.6615 31.0273 71.4688C30.8841 71.276 30.7747 71.0495 30.6992 70.7891C30.6237 70.526 30.5859 70.2409 30.5859 69.9336ZM31.5273 69.8516V69.9336C31.5273 70.1263 31.5443 70.306 31.5781 70.4727C31.6146 70.6393 31.6706 70.7865 31.7461 70.9141C31.8216 71.0391 31.9193 71.138 32.0391 71.2109C32.1615 71.2812 32.3073 71.3164 32.4766 71.3164C32.6901 71.3164 32.8659 71.2695 33.0039 71.1758C33.1419 71.082 33.25 70.9557 33.3281 70.7969C33.4089 70.6354 33.4635 70.4557 33.4922 70.2578V69.5508C33.4766 69.3971 33.444 69.2539 33.3945 69.1211C33.3477 68.9883 33.2839 68.8724 33.2031 68.7734C33.1224 68.6719 33.0221 68.5938 32.9023 68.5391C32.7852 68.4818 32.6458 68.4531 32.4844 68.4531C32.3125 68.4531 32.1667 68.4896 32.0469 68.5625C31.9271 68.6354 31.8281 68.7357 31.75 68.8633C31.6745 68.9909 31.6185 69.1393 31.582 69.3086C31.5456 69.4779 31.5273 69.6589 31.5273 69.8516ZM36.2734 67.7734V72H35.3281V67.7734H36.2734ZM35.2656 66.6641C35.2656 66.5208 35.3125 66.4023 35.4062 66.3086C35.5026 66.2122 35.6354 66.1641 35.8047 66.1641C35.9714 66.1641 36.1029 66.2122 36.1992 66.3086C36.2956 66.4023 36.3438 66.5208 36.3438 66.6641C36.3438 66.8047 36.2956 66.9219 36.1992 67.0156C36.1029 67.1094 35.9714 67.1562 35.8047 67.1562C35.6354 67.1562 35.5026 67.1094 35.4062 67.0156C35.3125 66.9219 35.2656 66.8047 35.2656 66.6641ZM38.2383 68.6758V72H37.2969V67.7734H38.1836L38.2383 68.6758ZM38.0703 69.7305L37.7656 69.7266C37.7682 69.4271 37.8099 69.1523 37.8906 68.9023C37.974 68.6523 38.0885 68.4375 38.2344 68.2578C38.3828 68.0781 38.5599 67.9401 38.7656 67.8438C38.9714 67.7448 39.2005 67.6953 39.4531 67.6953C39.6562 67.6953 39.8398 67.724 40.0039 67.7812C40.1706 67.8359 40.3125 67.9258 40.4297 68.0508C40.5495 68.1758 40.6406 68.3385 40.7031 68.5391C40.7656 68.737 40.7969 68.9805 40.7969 69.2695V72H39.8516V69.2656C39.8516 69.0625 39.8216 68.9023 39.7617 68.7852C39.7044 68.6654 39.6198 68.5807 39.5078 68.5312C39.3984 68.4792 39.2617 68.4531 39.0977 68.4531C38.9362 68.4531 38.7917 68.487 38.6641 68.5547C38.5365 68.6224 38.4284 68.7148 38.3398 68.832C38.2539 68.9492 38.1875 69.0846 38.1406 69.2383C38.0938 69.3919 38.0703 69.556 38.0703 69.7305ZM44.4648 67.7734H45.3203V71.8828C45.3203 72.263 45.2396 72.5859 45.0781 72.8516C44.9167 73.1172 44.6914 73.319 44.4023 73.457C44.1133 73.5977 43.7786 73.668 43.3984 73.668C43.237 73.668 43.0573 73.6445 42.8594 73.5977C42.6641 73.5508 42.474 73.4753 42.2891 73.3711C42.1068 73.2695 41.9544 73.1354 41.832 72.9688L42.2734 72.4141C42.4245 72.5938 42.5911 72.7253 42.7734 72.8086C42.9557 72.8919 43.1471 72.9336 43.3477 72.9336C43.5638 72.9336 43.7474 72.8932 43.8984 72.8125C44.0521 72.7344 44.1706 72.6185 44.2539 72.4648C44.3372 72.3112 44.3789 72.1237 44.3789 71.9023V68.7305L44.4648 67.7734ZM41.5938 69.9336V69.8516C41.5938 69.5312 41.6328 69.2396 41.7109 68.9766C41.7891 68.7109 41.901 68.4831 42.0469 68.293C42.1927 68.1003 42.3698 67.9531 42.5781 67.8516C42.7865 67.7474 43.0221 67.6953 43.2852 67.6953C43.5586 67.6953 43.7917 67.7448 43.9844 67.8438C44.1797 67.9427 44.3424 68.0846 44.4727 68.2695C44.6029 68.4518 44.7044 68.6706 44.7773 68.9258C44.8529 69.1784 44.9089 69.4596 44.9453 69.7695V70.0312C44.9115 70.3333 44.8542 70.6094 44.7734 70.8594C44.6927 71.1094 44.5859 71.3255 44.4531 71.5078C44.3203 71.6901 44.1562 71.8307 43.9609 71.9297C43.7682 72.0286 43.5404 72.0781 43.2773 72.0781C43.0195 72.0781 42.7865 72.0247 42.5781 71.918C42.3724 71.8112 42.1953 71.6615 42.0469 71.4688C41.901 71.276 41.7891 71.0495 41.7109 70.7891C41.6328 70.526 41.5938 70.2409 41.5938 69.9336ZM42.5352 69.8516V69.9336C42.5352 70.1263 42.5534 70.306 42.5898 70.4727C42.6289 70.6393 42.6875 70.7865 42.7656 70.9141C42.8464 71.0391 42.9479 71.138 43.0703 71.2109C43.1953 71.2812 43.3424 71.3164 43.5117 71.3164C43.7331 71.3164 43.9141 71.2695 44.0547 71.1758C44.1979 71.082 44.3073 70.9557 44.3828 70.7969C44.4609 70.6354 44.5156 70.4557 44.5469 70.2578V69.5508C44.5312 69.3971 44.4987 69.2539 44.4492 69.1211C44.4023 68.9883 44.3385 68.8724 44.2578 68.7734C44.1771 68.6719 44.0755 68.5938 43.9531 68.5391C43.8307 68.4818 43.6862 68.4531 43.5195 68.4531C43.3503 68.4531 43.2031 68.4896 43.0781 68.5625C42.9531 68.6354 42.8503 68.7357 42.7695 68.8633C42.6914 68.9909 42.6328 69.1393 42.5938 69.3086C42.5547 69.4779 42.5352 69.6589 42.5352 69.8516Z" fill="#1E1E1E"/>
<defs>
<clipPath id="clip0_2001_133">
<rect width="29" height="29" fill="white" transform="translate(15 15)"/>
</clipPath>
<clipPath id="clip1_2001_133">
<rect width="29" height="29" fill="white" transform="translate(15 15)"/>
</clipPath>
</defs>
</svg>
